<?xml version="1.0" encoding="UTF-8"?>
<!DOCTYPE svg PUBLIC "-//W3C//DTD SVG 1.1//EN" "http://www.w3.org/Graphics/SVG/1.1/DTD/svg11.dtd">
<!-- Creator: CorelDRAW 2020 (64 Bit) -->
<svg xmlns="http://www.w3.org/2000/svg" xml:space="preserve" width="35px" height="36px" version="1.1" style="shape-rendering:geometricPrecision; text-rendering:geometricPrecision; image-rendering:optimizeQuality; fill-rule:evenodd; clip-rule:evenodd"
viewBox="0 0 0.62 0.65"
 xmlns:xlink="http://www.w3.org/1999/xlink"
 xmlns:xodm="http://www.corel.com/coreldraw/odm/2003">
 <defs>
  <style type="text/css">
   <![CDATA[
    .str0 {stroke:#30B053;stroke-width:0.02;stroke-miterlimit:22.9256}
    .str2 {stroke:#30B053;stroke-width:0.02;stroke-miterlimit:22.9256}
    .str1 {stroke:#30B053;stroke-width:0.02;stroke-miterlimit:22.9256}
    .fil1 {fill:none}
    .fil2 {fill:#30B053}
    .fil0 {fill:#333333;fill-rule:nonzero}
   ]]>
  </style>
 </defs>
 <g id="Camada_x0020_1">
  <metadata id="CorelCorpID_0Corel-Layer"/>
  <g id="Cal._x0020_Abre">
   <path class="fil0" d="M0.03 0.27l0 0.02 -0.02 0 0 -0.02 0.02 0zm0.58 0.3l-0.02 0 0 0.02 0.02 0 0 -0.02zm-0.07 0l0 0.02 -0.02 0 0 -0.02 0.02 0zm-0.08 0l0 0.02 -0.01 0 0 -0.02 0.01 0zm-0.07 0l0 0.02 -0.02 0 0 -0.02 0.02 0zm-0.07 0l0 0.02 -0.02 0 0 -0.02 0.02 0zm-0.07 0l0 0.02 -0.02 0 0 -0.02 0.02 0zm-0.08 0l0 0.02 -0.02 0 0 -0.02 0.02 0zm-0.07 0l0 0.02 -0.02 0 0 -0.02 0.02 0zm-0.07 0l0 0.02 -0.02 0 0 -0.02 0.02 0zm0.58 -0.1l-0.02 0 0 0.02 0.02 0 0 -0.02zm-0.07 0l0 0.02 -0.02 0 0 -0.02 0.02 0zm-0.08 0l0 0.02 -0.01 0 0 -0.02 0.01 0zm-0.07 0l0 0.02 -0.02 0 0 -0.02 0.02 0zm-0.07 0l0 0.02 -0.02 0 0 -0.02 0.02 0zm-0.07 0l0 0.02 -0.02 0 0 -0.02 0.02 0zm-0.08 0l0 0.02 -0.02 0 0 -0.02 0.02 0zm-0.07 0l0 0.02 -0.02 0 0 -0.02 0.02 0zm-0.07 0l0 0.02 -0.02 0 0 -0.02 0.02 0zm0.58 -0.1l-0.02 0 0 0.02 0.02 0 0 -0.02zm-0.07 0l0 0.02 -0.02 0 0 -0.02 0.02 0zm-0.08 0l0 0.02 -0.01 0 0 -0.02 0.01 0zm-0.07 0l0 0.02 -0.02 0 0 -0.02 0.02 0zm-0.07 0l0 0.02 -0.02 0 0 -0.02 0.02 0zm-0.07 0l0 0.02 -0.02 0 0 -0.02 0.02 0zm-0.08 0l0 0.02 -0.02 0 0 -0.02 0.02 0zm-0.07 0l0 0.02 -0.02 0 0 -0.02 0.02 0zm-0.07 0l0 0.02 -0.02 0 0 -0.02 0.02 0zm0.58 -0.1l-0.02 0 0 0.02 0.02 0 0 -0.02zm-0.07 0l0 0.02 -0.02 0 0 -0.02 0.02 0zm-0.08 0l0 0.02 -0.01 0 0 -0.02 0.01 0zm-0.07 0l0 0.02 -0.02 0 0 -0.02 0.02 0zm-0.07 0l0 0.02 -0.02 0 0 -0.02 0.02 0zm-0.07 0l0 0.02 -0.02 0 0 -0.02 0.02 0zm-0.08 0l0 0.02 -0.02 0 0 -0.02 0.02 0zm-0.07 0l0 0.02 -0.02 0 0 -0.02 0.02 0z"/>
   <path class="fil1 str0" d="M0.01 0.09l0.13 0 0 0.09 0.06 0 0 -0.09 0.22 0 0 0.09 0.06 0 0 -0.09 0.13 0 0 0.5c0,0.03 -0.02,0.05 -0.05,0.05l-0.5 0c-0.03,0 -0.05,-0.02 -0.05,-0.05l0 -0.5z"/>
   <polygon class="fil2 str1" points="0.01,0.09 0.14,0.09 0.14,0.18 0.2,0.18 0.2,0.09 0.42,0.09 0.42,0.18 0.48,0.18 0.48,0.09 0.61,0.09 0.61,0.22 0.01,0.22 "/>
   <path class="fil1 str2" d="M0.42 0.01l0.06 0 0 0.17 -0.06 0 0 -0.17zm-0.28 0l0.06 0 0 0.17 -0.06 0 0 -0.17z"/>
  </g>
 </g>
</svg>
