<?xml version="1.0" encoding="UTF-8"?>
<!DOCTYPE svg PUBLIC "-//W3C//DTD SVG 1.1//EN" "http://www.w3.org/Graphics/SVG/1.1/DTD/svg11.dtd">
<!-- Creator: CorelDRAW 2020 (64 Bit) -->
<svg xmlns="http://www.w3.org/2000/svg" xml:space="preserve" width="1900px" height="1247px" version="1.1" style="shape-rendering:geometricPrecision; text-rendering:geometricPrecision; image-rendering:optimizeQuality; fill-rule:evenodd; clip-rule:evenodd"
viewBox="0 0 1899.93 1246.58"
 xmlns:xlink="http://www.w3.org/1999/xlink"
 xmlns:xodm="http://www.corel.com/coreldraw/odm/2003">
 <defs>
  <style type="text/css">
   <![CDATA[
    .fil0 {fill:#777778;fill-rule:nonzero}
   ]]>
  </style>
 </defs>
 <g id="Camada_x0020_1">
  <metadata id="CorelCorpID_0Corel-Layer"/>
  <path class="fil0" d="M1532.16 0l-1246.58 1246.58 -1.81 0 1246.58 -1246.58 1.81 0zm-1528.26 0l-3.9 3.9 0 -1.81 2.09 -2.09 1.81 0zm18.55 0l-22.45 22.45 0 -1.81 20.64 -20.64 1.81 0zm18.55 0l-41 41 0 -1.81 39.19 -39.19 1.81 0zm18.55 0l-59.55 59.55 0 -1.81 57.74 -57.74 1.81 0zm18.55 0l-78.1 78.1 0 -1.81 76.29 -76.29 1.81 0zm18.55 0l-96.65 96.65 0 -1.81 94.84 -94.84 1.81 0zm18.56 0l-115.21 115.21 0 -1.81 113.4 -113.4 1.81 0zm18.55 0l-133.76 133.76 0 -1.81 131.95 -131.95 1.81 0zm18.55 0l-152.31 152.31 0 -1.81 150.5 -150.5 1.81 0zm18.55 0l-170.86 170.86 0 -1.81 169.05 -169.05 1.81 0zm17.91 0l-188.77 188.77 0 -1.81 186.96 -186.96 1.81 0zm17.91 0l-206.68 206.68 0 -1.81 204.87 -204.87 1.81 0zm17.92 0l-224.6 224.6 0 -1.81 222.79 -222.79 1.81 0zm18.55 0l-243.15 243.15 0 -1.81 241.34 -241.34 1.81 0zm18.55 0l-261.7 261.7 0 -1.81 259.89 -259.89 1.81 0zm18.55 0l-280.25 280.25 0 -1.81 278.44 -278.44 1.81 0zm18.55 0l-298.8 298.8 0 -1.81 296.99 -296.99 1.81 0zm18.55 0l-317.35 317.35 0 -1.81 315.54 -315.54 1.81 0zm18.55 0l-335.9 335.9 0 -1.8 334.1 -334.1 1.8 0zm18.56 0l-354.46 354.46 0 -1.81 352.65 -352.65 1.81 0zm18.55 0l-373.01 373.01 0 -1.81 371.2 -371.2 1.81 0zm17.91 0l-390.92 390.92 0 -1.81 389.11 -389.11 1.81 0zm18.55 0l-409.47 409.47 0 -1.81 407.66 -407.66 1.81 0zm18.55 0l-428.02 428.02 0 -1.81 426.21 -426.21 1.81 0zm18.55 0l-446.57 446.57 0 -1.8 444.77 -444.77 1.8 0zm18.56 0l-465.13 465.13 0 -1.81 463.32 -463.32 1.81 0zm18.55 0l-483.68 483.68 0 -1.81 481.87 -481.87 1.81 0zm17.91 0l-501.59 501.59 0 -1.81 499.78 -499.78 1.81 0zm17.91 0l-519.5 519.5 0 -1.81 517.69 -517.69 1.81 0zm18.55 0l-538.05 538.05 0 -1.81 536.24 -536.24 1.81 0zm18.55 0l-556.6 556.6 0 -1.81 554.79 -554.79 1.81 0zm18.56 0l-575.16 575.16 0 -1.81 573.35 -573.35 1.81 0zm17.91 0l-593.07 593.07 0 -1.81 591.26 -591.26 1.81 0zm18.55 0l-611.62 611.62 0 -1.81 609.81 -609.81 1.81 0zm18.55 0l-630.17 630.17 0 -1.81 628.36 -628.36 1.81 0zm18.55 0l-648.72 648.72 0 -1.81 646.91 -646.91 1.81 0zm18.55 0l-667.27 667.27 0 -1.81 665.46 -665.46 1.81 0zm17.92 0l-685.19 685.19 0 -1.81 683.38 -683.38 1.81 0zm18.55 0l-703.74 703.74 0 -1.81 701.93 -701.93 1.81 0zm18.55 0l-722.29 722.29 0 -1.81 720.48 -720.48 1.81 0zm18.55 0l-740.84 740.84 0 -1.81 739.03 -739.03 1.81 0zm18.55 0l-759.39 759.39 0 -1.81 757.58 -757.58 1.81 0zm18.55 0l-777.94 777.94 0 -1.81 776.13 -776.13 1.81 0zm17.91 0l-795.85 795.85 0 -1.8 794.05 -794.05 1.8 0zm18.56 0l-814.41 814.41 0 -1.81 812.6 -812.6 1.81 0zm18.55 0l-832.96 832.96 0 -1.81 831.15 -831.15 1.81 0zm17.91 0l-850.87 850.87 0 -1.81 849.06 -849.06 1.81 0zm18.55 0l-869.42 869.42 0 -1.81 867.61 -867.61 1.81 0zm18.55 0l-887.97 887.97 0 -1.81 886.16 -886.16 1.81 0zm18.55 0l-906.52 906.52 0 -1.8 904.72 -904.72 1.8 0zm18.56 0l-925.08 925.08 0 -1.81 923.27 -923.27 1.81 0zm17.91 0l-942.99 942.99 0 -1.81 941.18 -941.18 1.81 0zm18.55 0l-961.54 961.54 0 -1.81 959.73 -959.73 1.81 0zm18.55 0l-980.09 980.09 0 -1.81 978.28 -978.28 1.81 0zm18.55 0l-998.64 998.64 0 -1.81 996.83 -996.83 1.81 0zm18.55 0l-1017.19 1017.19 0 -1.81 1015.38 -1015.38 1.81 0zm17.92 0l-1035.11 1035.11 0 -1.81 1033.3 -1033.3 1.81 0zm18.55 0l-1053.66 1053.66 0 -1.81 1051.85 -1051.85 1.81 0zm18.55 0l-1072.21 1072.21 0 -1.81 1070.4 -1070.4 1.81 0zm18.55 0l-1090.76 1090.76 0 -1.81 1088.95 -1088.95 1.81 0zm17.91 0l-1108.67 1108.67 0 -1.81 1106.86 -1106.86 1.81 0zm18.55 0l-1127.22 1127.22 0 -1.81 1125.41 -1125.41 1.81 0zm18.55 0l-1145.77 1145.77 0 -1.8 1143.97 -1143.97 1.8 0zm18.56 0l-1164.33 1164.33 0 -1.81 1162.52 -1162.52 1.81 0zm18.55 0l-1182.88 1182.88 0 -1.81 1181.07 -1181.07 1.81 0zm17.91 0l-1200.79 1200.79 0 -1.81 1198.98 -1198.98 1.81 0zm18.55 0l-1219.34 1219.34 0 -1.81 1217.53 -1217.53 1.81 0zm18.55 0l-1237.89 1237.89 0 -1.81 1236.08 -1236.08 1.81 0zm18.55 0l-1246.58 1246.58 -1.81 0 1246.59 -1246.58 1.8 0zm17.92 0l-1246.59 1246.58 -1.81 0 1246.59 -1246.58 1.81 0zm18.55 0l-1246.59 1246.58 -1.8 0 1246.58 -1246.58 1.81 0zm18.55 0l-1246.58 1246.58 -1.81 0 1246.58 -1246.58 1.81 0zm18.55 0l-1246.58 1246.58 -1.81 0 1246.58 -1246.58 1.81 0zm17.91 0l-1246.58 1246.58 -1.81 0 1246.58 -1246.58 1.81 0zm18.55 0l-1246.58 1246.58 -1.81 0 1246.58 -1246.58 1.81 0zm18.56 0l-1246.59 1246.58 -1.81 0 1246.59 -1246.58 1.81 0zm18.55 0l-1246.59 1246.58 -1.81 0 1246.59 -1246.58 1.81 0zm18.55 0l-1246.58 1246.58 -1.81 0 1246.58 -1246.58 1.81 0zm18.55 0l-1246.58 1246.58 -1.81 0 1246.58 -1246.58 1.81 0zm17.91 0l-1246.58 1246.58 -1.81 0 1246.58 -1246.58 1.81 0zm18.55 0l-1246.58 1246.58 -1.81 0 1246.58 -1246.58 1.81 0zm18.56 0l-1246.59 1246.58 -1.81 0 1246.59 -1246.58 1.81 0zm17.91 0l-1246.59 1246.58 -1.81 0 1246.59 -1246.58 1.81 0zm37.1 0l-1246.58 1246.58 -1.81 0 1246.58 -1246.58 1.81 0zm18.55 0l-1246.58 1246.58 -1.81 0 1246.58 -1246.58 1.81 0zm18.55 0l-1246.58 1246.58 -1.81 0 1246.58 -1246.58 1.81 0zm18.55 0l-1246.58 1246.58 -1.81 0 1246.59 -1246.58 1.8 0zm17.92 0l-1246.59 1246.58 -1.81 0 1246.59 -1246.58 1.81 0zm18.55 0l-1246.59 1246.58 -1.8 0 1246.58 -1246.58 1.81 0zm18.55 0l-1246.58 1246.58 -1.81 0 1246.58 -1246.58 1.81 0zm18.55 0l-1246.58 1246.58 -1.81 0 1246.58 -1246.58 1.81 0zm17.91 0l-1246.58 1246.58 -1.81 0 1246.58 -1246.58 1.81 0zm18.55 0l-1246.58 1246.58 -1.81 0 1246.59 -1246.58 1.8 0zm18.56 0l-1246.59 1246.58 -1.81 0 1246.59 -1246.58 1.81 0zm18.55 0l-1246.59 1246.58 -1.81 0 1246.59 -1246.58 1.81 0zm17.91 0l-1246.58 1246.58 -1.81 0 1246.58 -1246.58 1.81 0zm18.55 0l-1246.58 1246.58 -1.81 0 1246.58 -1246.58 1.81 0zm18.55 0l-1246.58 1246.58 -1.81 0 1246.58 -1246.58 1.81 0zm18.55 0l-1246.58 1246.58 -1.81 0 1246.58 -1246.58 1.81 0zm17.92 0l-1246.59 1246.58 -1.81 0 1246.59 -1246.58 1.81 0zm18.55 0l-1246.59 1246.58 -1.81 0 1246.59 -1246.58 1.81 0zm18.55 0l-1246.58 1246.58 -1.81 0 1246.58 -1246.58 1.81 0zm17.85 0l0 0.7 -1245.88 1245.88 -1.81 0 1246.58 -1246.58 1.11 0zm0 17.44l0 1.81 -1227.33 1227.33 -1.81 0 1229.14 -1229.14zm0 17.91l0 1.81 -1209.42 1209.42 -1.81 0 1211.23 -1211.23zm0 18.55l0 1.81 -1190.87 1190.87 -1.81 0 1192.68 -1192.68zm0 18.56l0 1.8 -1172.32 1172.32 -1.81 0 1174.13 -1174.12zm0 18.55l0 1.81 -1153.77 1153.76 -1.8 0 1155.57 -1155.57zm0 17.91l0 1.81 -1135.85 1135.85 -1.81 0 1137.66 -1137.66zm0 18.55l0 1.81 -1117.3 1117.3 -1.81 0 1119.11 -1119.11zm0 18.55l0 1.81 -1098.75 1098.75 -1.81 0 1100.56 -1100.56zm0 18.55l0 1.81 -1080.2 1080.2 -1.81 0 1082.01 -1082.01zm0 18.55l0 1.81 -1061.65 1061.65 -1.81 0 1063.46 -1063.46zm0 17.92l0 1.81 -1043.74 1043.73 -1.8 0 1045.54 -1045.54zm0 18.55l0 1.81 -1025.18 1025.18 -1.81 0 1026.99 -1026.99zm0 18.55l0 1.81 -1006.63 1006.63 -1.81 0 1008.44 -1008.44zm0 18.55l0 1.81 -988.08 988.08 -1.81 0 989.89 -989.89zm0 17.91l0 1.81 -970.17 970.17 -1.81 0 971.98 -971.98zm0 18.55l0 1.81 -951.62 951.62 -1.81 0 953.43 -953.43zm0 18.56l0 1.81 -933.07 933.06 -1.81 0 934.88 -934.87zm0 18.55l0 1.81 -914.51 914.51 -1.81 0 916.32 -916.32zm0 18.55l0 1.81 -895.96 895.96 -1.81 0 897.77 -897.77zm0 17.91l0 1.81 -878.05 878.05 -1.81 0 879.86 -879.86zm0 18.55l0 1.81 -859.5 859.5 -1.81 0 861.31 -861.31zm0 18.55l0 1.81 -840.95 840.95 -1.81 0 842.76 -842.76zm0 18.56l0 1.8 -822.4 822.4 -1.81 0 824.21 -824.2zm0 18.55l0 1.81 -803.85 803.84 -1.8 0 805.65 -805.65zm0 17.91l0 1.81 -785.93 785.93 -1.81 0 787.74 -787.74zm0 18.55l0 1.81 -767.38 767.38 -1.81 0 769.19 -769.19zm0 18.55l0 1.81 -748.83 748.83 -1.81 0 750.64 -750.64zm0 17.91l0 1.81 -730.92 730.92 -1.81 0 732.73 -732.73zm0 18.56l0 1.8 -712.37 712.37 -1.81 0 714.18 -714.17zm0 18.55l0 1.81 -693.82 693.81 -1.8 0 695.62 -695.62zm0 18.55l0 1.81 -675.26 675.26 -1.81 0 677.07 -677.07zm0 18.55l0 1.81 -656.71 656.71 -1.81 0 658.52 -658.52zm0 17.91l0 1.81 -638.8 638.8 -1.81 0 640.61 -640.61zm0 17.91l0 1.81 -620.89 620.89 -1.81 0 622.7 -622.7zm0 17.92l0 1.8 -602.98 602.98 -1.81 0 604.79 -604.78zm0 17.91l0 1.81 -585.06 585.06 -1.81 0 586.87 -586.87zm0 17.91l0 1.81 -567.15 567.15 -1.81 0 568.96 -568.96zm0 17.91l0 1.81 -549.24 549.24 -1.81 0 551.05 -551.05zm0 17.91l0 1.81 -531.33 531.33 -1.81 0 533.14 -533.14zm0 17.91l0 1.81 -513.42 513.42 -1.81 0 515.23 -515.23zm0 17.92l0 1.81 -495.51 495.5 -1.8 0 497.31 -497.31zm0 17.91l0 1.81 -477.59 477.59 -1.81 0 479.4 -479.4zm0 17.91l0 1.81 -459.68 459.68 -1.81 0 461.49 -461.49zm0 17.91l0 1.81 -441.77 441.77 -1.81 0 443.58 -443.58zm0 17.91l0 1.81 -423.86 423.86 -1.81 0 425.67 -425.67zm0 17.92l0 1.8 -405.95 405.95 -1.81 0 407.76 -407.75zm0 17.91l0 1.81 -388.03 388.03 -1.81 0 389.84 -389.84zm0 17.91l0 1.81 -370.12 370.12 -1.81 0 371.93 -371.93zm0 17.91l0 1.81 -352.21 352.21 -1.81 0 354.02 -354.02zm0 17.91l0 1.81 -334.3 334.3 -1.81 0 336.11 -336.11zm0 17.91l0 1.81 -316.39 316.39 -1.81 0 318.2 -318.2zm0 17.92l0 1.81 -298.48 298.47 -1.8 0 300.28 -300.28zm0 17.91l0 1.81 -280.56 280.56 -1.81 0 282.37 -282.37zm0 17.91l0 1.81 -262.65 262.65 -1.81 0 264.46 -264.46zm0 17.91l0 1.81 -244.74 244.74 -1.81 0 246.55 -246.55zm0 17.91l0 1.81 -226.83 226.83 -1.81 0 228.64 -228.64zm0 17.92l0 1.8 -208.92 208.92 -1.81 0 210.73 -210.72zm0 17.91l0 1.81 -191 191 -1.81 0 192.81 -192.81zm0 17.91l0 1.81 -173.09 173.09 -1.81 0 174.9 -174.9zm0 17.91l0 1.81 -155.18 155.18 -1.81 0 156.99 -156.99zm0 17.91l0 1.81 -137.27 137.27 -1.81 0 139.08 -139.08zm0 17.91l0 1.81 -119.36 119.36 -1.81 0 121.17 -121.17zm0 17.92l0 1.81 -101.45 101.44 -1.8 0 103.25 -103.25zm0 17.91l0 1.81 -83.53 83.53 -1.81 0 85.34 -85.34zm0 17.91l0 1.81 -65.62 65.62 -1.81 0 67.43 -67.43zm0 17.91l0 1.81 -47.71 47.71 -1.81 0 49.52 -49.52zm0 17.91l0 1.81 -29.8 29.8 -1.81 0 31.61 -31.61zm0 17.92l0 1.8 -11.89 11.89 -1.81 0 13.7 -13.69z"/>
 </g>
</svg>
