<?xml version="1.0" encoding="UTF-8"?>
<!DOCTYPE svg PUBLIC "-//W3C//DTD SVG 1.1//EN" "http://www.w3.org/Graphics/SVG/1.1/DTD/svg11.dtd">
<!-- Creator: CorelDRAW 2020 (64 Bit) -->
<svg xmlns="http://www.w3.org/2000/svg" xml:space="preserve" width="28px" height="28px" version="1.1" style="shape-rendering:geometricPrecision; text-rendering:geometricPrecision; image-rendering:optimizeQuality; fill-rule:evenodd; clip-rule:evenodd"
viewBox="0 0 0.29 0.29"
 xmlns:xlink="http://www.w3.org/1999/xlink"
 xmlns:xodm="http://www.corel.com/coreldraw/odm/2003">
 <defs>
  <style type="text/css">
   <![CDATA[
    .fil0 {fill:#333333;fill-rule:nonzero}
   ]]>
  </style>
 </defs>
 <g id="Camada_x0020_1">
  <metadata id="CorelCorpID_0Corel-Layer"/>
  <g id="_2455988103728">
   <g>
    <g>
     <path class="fil0" d="M0.28 0.26c0,0 -0.01,0 -0.01,0 0,0 -0.01,-0.01 -0.01,-0.01 -0.01,0 -0.02,0.01 -0.02,0.01 0,0 0,0 0,0 -0.01,0 -0.02,0.01 -0.02,0.02 0,0 0,0 0,0l-0.02 0 0 -0.03 0.03 0c0,0 0,0 0,0l0 -0.2c0,0 0,0 0,0l-0.15 0c0,0 0,0 0,0l0 0.24c0,0 0,0 0,0l0.2 0c0,0 0.01,-0.01 0.01,-0.01 0,-0.01 -0.01,-0.02 -0.01,-0.02zm-0.08 -0.2l0.02 0 0 0.03 -0.02 0 0 -0.03zm0 0.04l0.02 0 0 0.03 -0.02 0 0 -0.03zm0 0.04l0.02 0 0 0.03 -0.02 0 0 -0.03zm0 0.03l0.02 0 0 0.03 -0.02 0 0 -0.03zm0 0.04l0.02 0 0 0.03 -0.02 0 0 -0.03zm-0.09 0.07l-0.02 0 0 -0.03 0.02 0 0 0.03zm0 -0.04l-0.02 0 0 -0.03 0.02 0 0 0.03zm0 -0.04l-0.02 0 0 -0.03 0.02 0 0 0.03zm0 -0.03l-0.02 0 0 -0.03 0.02 0 0 0.03zm0 -0.04l-0.02 0 0 -0.03 0.02 0 0 0.03zm0 -0.04l-0.02 0 0 -0.03 0.02 0 0 0.03zm0.03 0.19l-0.02 0 0 -0.03 0.02 0 0 0.03zm0 -0.04l-0.02 0 0 -0.03 0.02 0 0 0.03zm0 -0.04l-0.02 0 0 -0.03 0.02 0 0 0.03zm0 -0.03l-0.02 0 0 -0.03 0.02 0 0 0.03zm0 -0.04l-0.02 0 0 -0.03 0.02 0 0 0.03zm0 -0.04l-0.02 0 0 -0.03 0.02 0 0 0.03zm0.02 0.19l-0.01 0 0 -0.03 0.01 0 0 0.03zm0 -0.04l-0.01 0 0 -0.03 0.01 0 0 0.03zm0 -0.04l-0.01 0 0 -0.03 0.01 0 0 0.03zm0 -0.03l-0.01 0 0 -0.03 0.01 0 0 0.03zm0 -0.04l-0.01 0 0 -0.03 0.01 0 0 0.03zm0 -0.04l-0.01 0 0 -0.03 0.01 0 0 0.03zm0.03 0.19l-0.02 0 0 -0.03 0.02 0 0 0.03zm0 -0.04l-0.02 0 0 -0.03 0.02 0 0 0.03zm0 -0.04l-0.02 0 0 -0.03 0.02 0 0 0.03zm0 -0.03l-0.02 0 0 -0.03 0.02 0 0 0.03zm0 -0.04l-0.02 0 0 -0.03 0.02 0 0 0.03zm0 -0.04l-0.02 0 0 -0.03 0.02 0 0 0.03zm0.09 0.19l-0.04 0c0,0 -0.01,0 -0.01,0 0,-0.01 0.01,-0.01 0.01,-0.01 0,0 0,0 0,0 0,0 0,0 0,0 0.01,0 0.01,0 0.01,0 0,0 0,-0.01 0.01,-0.01 0,0 0.01,0.01 0.01,0.01 0,0 0,0 0,0 0,0 0,0 0,0 0.01,0 0.01,0 0.01,0.01 0,0 0,0 0,0z"/>
     <path class="fil0" d="M0.11 0.03l0 -0.01 0.03 0c0,0 0.01,0 0.01,-0.01l0 0 0.01 0 0 0c0,0.01 0.01,0.01 0.01,0.01l0.03 0 0 0.01 -0.08 0c0,0 0,0 0,0 0,0.01 0,0.01 0,0.01l0.12 0 0 0.2c0,0 0,0 0.01,0 0,0 0,0 0,0l0 -0.21c0,0 0,0 0,0l-0.04 0 0 -0.02c0,0 0,0 0,0l-0.04 0 0 -0.01c0,0 0,0 0,0l-0.03 0c0,0 0,0 0,0l0 0.01 -0.04 0c0,0 0,0 0,0l0 0.02 -0.04 0c0,0 0,0 0,0l0 0.25 -0.03 0 0 -0.02c0.01,0 0.02,-0.01 0.02,-0.02 0,0 0,-0.07 -0.03,-0.07 -0.02,0 -0.02,0.07 -0.02,0.07 0,0.01 0.01,0.02 0.02,0.02l0 0.02 -0.02 0c0,0 0,0 0,0.01 0,0 0,0 0,0l0.06 0c0.01,0 0.01,0 0.01,0l0 -0.25 0.03 0c0,0 0.01,0 0.01,-0.01zm-0.1 0.21c0,-0.03 0.01,-0.06 0.01,-0.06 0.01,0 0.02,0.03 0.02,0.06 0,0.01 -0.01,0.01 -0.02,0.01 0,0 -0.01,0 -0.01,-0.01z"/>
    </g>
   </g>
  </g>
 </g>
</svg>
