<?xml version="1.0" encoding="UTF-8"?>
<!DOCTYPE svg PUBLIC "-//W3C//DTD SVG 1.1//EN" "http://www.w3.org/Graphics/SVG/1.1/DTD/svg11.dtd">
<!-- Creator: CorelDRAW 2020 (64 Bit) -->
<svg xmlns="http://www.w3.org/2000/svg" xml:space="preserve" width="131px" height="132px" version="1.1" style="shape-rendering:geometricPrecision; text-rendering:geometricPrecision; image-rendering:optimizeQuality; fill-rule:evenodd; clip-rule:evenodd"
viewBox="0 0 11.13 11.21"
 xmlns:xlink="http://www.w3.org/1999/xlink"
 xmlns:xodm="http://www.corel.com/coreldraw/odm/2003">
 <defs>
  <style type="text/css">
   <![CDATA[
    .fil0 {fill:#183449}
   ]]>
  </style>
 </defs>
 <g id="Camada_x0020_1">
  <metadata id="CorelCorpID_0Corel-Layer"/>
  <path class="fil0" d="M5.56 0c3.08,0 5.57,2.51 5.57,5.61 0,3.09 -2.49,5.6 -5.57,5.6 -3.07,0 -5.56,-2.51 -5.56,-5.6 0,-3.1 2.49,-5.61 5.56,-5.61zm2.46 7.6c-0.02,0 -0.03,0.01 -0.04,0.03 0,0.02 -0.01,0.03 -0.02,0.03 -0.01,0 -0.02,-0.01 -0.02,-0.01 -0.01,-0.01 -0.01,-0.02 -0.01,-0.03 0,-0.02 0,-0.03 0.01,-0.05 0.01,-0.01 0.02,-0.02 0.03,-0.03 0.01,-0.01 0.03,-0.02 0.04,-0.02 0.02,0 0.03,0.01 0.04,0.01 0.01,0 0.03,0.01 0.05,0.02 0.02,0.01 0.04,0.02 0.04,0.02 0.01,0 0.02,0 0.03,0 0.01,0 0.02,0 0.02,0 0.01,-0.01 0.01,-0.02 0.01,-0.03 0.01,-0.02 0.02,-0.03 0.03,-0.03 0.01,0 0.01,0.01 0.02,0.01 0,0.01 0.01,0.02 0.01,0.03 0,0.02 -0.01,0.04 -0.02,0.06 -0.02,0.02 -0.04,0.04 -0.07,0.04 -0.01,0 -0.02,-0.01 -0.03,-0.01 -0.01,0 -0.03,-0.01 -0.05,-0.02 -0.02,-0.01 -0.03,-0.01 -0.04,-0.02 -0.01,0 -0.02,0 -0.03,0zm0.19 0.37c-0.02,0.01 -0.05,0.02 -0.08,0.03 -0.04,0 -0.06,0.01 -0.08,0.01 -0.01,0.01 -0.03,0.02 -0.04,0.03 -0.01,0.01 -0.02,0.02 -0.02,0.04 0,0.02 0.01,0.04 0.02,0.05 0.02,0.02 0.04,0.02 0.06,0.02 0.03,0 0.05,0 0.08,-0.01 0.02,-0.02 0.03,-0.03 0.04,-0.05 0.02,-0.02 0.02,-0.05 0.02,-0.1l0 -0.02zm0.01 0.19c-0.03,0.03 -0.06,0.05 -0.09,0.06 -0.03,0.01 -0.06,0.02 -0.1,0.02 -0.04,0 -0.06,-0.01 -0.09,-0.02 -0.03,-0.01 -0.05,-0.03 -0.06,-0.06 -0.01,-0.02 -0.02,-0.04 -0.02,-0.07 0,-0.04 0.01,-0.07 0.03,-0.09 0.03,-0.03 0.06,-0.04 0.1,-0.05 0.01,0 0.03,-0.01 0.06,-0.02 0.03,0 0.06,-0.01 0.09,-0.01 0.02,-0.01 0.04,-0.02 0.07,-0.02 0,-0.04 -0.01,-0.06 -0.02,-0.08 -0.01,-0.02 -0.04,-0.02 -0.08,-0.02 -0.03,0 -0.05,0 -0.07,0.01 -0.02,0.01 -0.03,0.02 -0.04,0.04 -0.02,0.02 -0.02,0.03 -0.03,0.04 -0.01,0 -0.02,0.01 -0.03,0.01 -0.02,0 -0.03,-0.01 -0.04,-0.02 -0.01,-0.01 -0.02,-0.02 -0.02,-0.03 0,-0.03 0.01,-0.05 0.03,-0.07 0.01,-0.02 0.04,-0.04 0.07,-0.06 0.04,-0.01 0.08,-0.02 0.13,-0.02 0.06,0 0.11,0.01 0.14,0.02 0.03,0.02 0.06,0.04 0.07,0.07 0.01,0.03 0.02,0.07 0.02,0.12 0,0.03 0,0.05 0,0.07 0,0.03 0,0.05 0,0.08 0,0.02 0,0.05 0.01,0.07 0.01,0.03 0.01,0.05 0.01,0.06 0,0.01 0,0.02 -0.01,0.03 -0.02,0.01 -0.03,0.02 -0.05,0.02 -0.01,0 -0.02,-0.01 -0.04,-0.02 -0.01,-0.01 -0.02,-0.03 -0.04,-0.06zm-0.67 0.08l0 0.01c0.03,0 0.06,0.01 0.07,0.02 0.02,0.02 0.03,0.04 0.03,0.06 0,0.02 -0.01,0.03 -0.02,0.05 -0.01,0.01 -0.03,0.02 -0.05,0.03 -0.03,0.01 -0.06,0.01 -0.09,0.01 -0.06,0 -0.09,-0.01 -0.09,-0.03 0,-0.01 0,-0.01 0.01,-0.02 0,0 0.01,0 0.01,0 0,0 0.01,0 0.02,0 0.02,0 0.03,0 0.04,0 0.06,0 0.09,-0.01 0.09,-0.04 0,-0.01 -0.01,-0.02 -0.02,-0.03 -0.01,0 -0.02,-0.01 -0.03,-0.01 -0.01,0 -0.01,0.01 -0.02,0.01 -0.01,0 -0.02,0 -0.02,0 -0.01,0 -0.02,0 -0.02,-0.01 -0.01,-0.01 -0.01,-0.01 -0.01,-0.02 0,-0.01 0.02,-0.03 0.07,-0.03 -0.08,-0.01 -0.14,-0.03 -0.18,-0.08 -0.04,-0.05 -0.06,-0.11 -0.06,-0.18 0,-0.06 0.01,-0.11 0.03,-0.15 0.02,-0.04 0.05,-0.07 0.09,-0.09 0.04,-0.03 0.09,-0.04 0.14,-0.04 0.03,0 0.07,0.01 0.09,0.02 0.03,0.01 0.06,0.02 0.08,0.04 0.02,0.01 0.03,0.03 0.04,0.05 0.01,0.02 0.02,0.03 0.02,0.05 0,0.01 -0.01,0.03 -0.02,0.04 -0.01,0.01 -0.03,0.01 -0.04,0.01 -0.02,0 -0.03,0 -0.05,-0.02 -0.02,-0.03 -0.03,-0.05 -0.05,-0.06 -0.02,-0.02 -0.04,-0.03 -0.07,-0.03 -0.04,0 -0.07,0.02 -0.1,0.05 -0.02,0.03 -0.03,0.07 -0.03,0.12 0,0.03 0,0.05 0.01,0.07 0,0.02 0.01,0.04 0.02,0.06 0.02,0.01 0.03,0.02 0.05,0.03 0.01,0.01 0.03,0.01 0.05,0.01 0.03,0 0.05,-0.01 0.07,-0.02 0.01,-0.01 0.03,-0.02 0.04,-0.04 0.02,-0.03 0.03,-0.04 0.03,-0.05 0.01,-0.01 0.02,-0.01 0.04,-0.01 0.01,0 0.03,0 0.04,0.02 0.01,0.01 0.01,0.02 0.01,0.04 0,0.02 0,0.04 -0.02,0.07 -0.02,0.02 -0.04,0.04 -0.08,0.06 -0.03,0.02 -0.07,0.03 -0.12,0.03zm-0.5 -0.08l0 -0.01c-0.02,0.02 -0.03,0.03 -0.05,0.05 -0.02,0.01 -0.04,0.02 -0.06,0.03 -0.02,0 -0.04,0.01 -0.07,0.01 -0.03,0 -0.06,-0.01 -0.08,-0.02 -0.03,-0.02 -0.05,-0.03 -0.06,-0.06 -0.02,-0.02 -0.03,-0.06 -0.03,-0.12l0 -0.26c0,-0.02 0.01,-0.04 0.02,-0.06 0.01,-0.01 0.03,-0.02 0.05,-0.02 0.02,0 0.03,0.01 0.05,0.02 0.01,0.02 0.01,0.04 0.01,0.06l0 0.21c0,0.03 0.01,0.06 0.01,0.08 0.01,0.02 0.02,0.04 0.03,0.05 0.01,0.01 0.03,0.02 0.05,0.02 0.03,0 0.05,-0.01 0.07,-0.02 0.02,-0.02 0.03,-0.03 0.04,-0.06 0.01,-0.01 0.01,-0.05 0.01,-0.12l0 -0.16c0,-0.02 0.01,-0.04 0.02,-0.06 0.01,-0.01 0.03,-0.02 0.05,-0.02 0.02,0 0.03,0.01 0.04,0.02 0.02,0.02 0.02,0.04 0.02,0.06l0 0.38c0,0.03 0,0.05 -0.02,0.06 -0.01,0.01 -0.02,0.02 -0.04,0.02 -0.02,0 -0.03,-0.01 -0.04,-0.02 -0.02,-0.01 -0.02,-0.03 -0.02,-0.06zm-0.62 -0.11l0 0.11c0,0.03 -0.01,0.05 -0.02,0.06 -0.01,0.01 -0.03,0.02 -0.05,0.02 -0.01,0 -0.03,-0.01 -0.04,-0.02 -0.01,-0.01 -0.02,-0.03 -0.02,-0.06l0 -0.37c0,-0.06 0.02,-0.09 0.06,-0.09 0.02,0 0.04,0.01 0.05,0.03 0.01,0.01 0.01,0.03 0.02,0.06 0.01,-0.03 0.03,-0.05 0.04,-0.06 0.02,-0.02 0.04,-0.03 0.07,-0.03 0.03,0 0.05,0.01 0.08,0.03 0.03,0.01 0.04,0.03 0.04,0.05 0,0.02 -0.01,0.03 -0.02,0.04 -0.01,0.01 -0.02,0.02 -0.03,0.02 -0.01,0 -0.02,-0.01 -0.04,-0.01 -0.02,-0.01 -0.03,-0.01 -0.05,-0.01 -0.02,0 -0.03,0 -0.04,0.01 -0.02,0.01 -0.03,0.03 -0.03,0.05 -0.01,0.02 -0.01,0.04 -0.02,0.07 0,0.03 0,0.06 0,0.1zm-0.47 -0.33l0.01 0 0 -0.08c0,-0.02 0,-0.04 0,-0.05 0.01,-0.01 0.01,-0.03 0.01,-0.03 0.01,-0.01 0.02,-0.02 0.03,-0.03 0.01,0 0.02,0 0.03,0 0.01,0 0.03,0 0.04,0.01 0.01,0.01 0.02,0.02 0.02,0.04 0,0.01 0,0.02 0,0.05l0 0.09 0.05 0c0.02,0 0.03,0 0.04,0.01 0.01,0.01 0.02,0.02 0.02,0.03 0,0.02 -0.01,0.03 -0.02,0.04 -0.02,0.01 -0.04,0.01 -0.06,0.01l-0.03 0 0 0.24c0,0.02 0,0.04 0.01,0.05 0,0.01 0,0.02 0.01,0.03 0,0 0.01,0.01 0.03,0.01 0.01,0 0.02,0 0.03,-0.01 0.01,0 0.02,0 0.03,0 0.01,0 0.02,0 0.03,0.01 0.01,0.01 0.01,0.02 0.01,0.03 0,0.02 -0.01,0.04 -0.03,0.05 -0.03,0.01 -0.06,0.02 -0.1,0.02 -0.04,0 -0.07,-0.01 -0.1,-0.02 -0.02,-0.02 -0.03,-0.03 -0.04,-0.06 0,-0.02 -0.01,-0.06 -0.01,-0.1l0 -0.25 -0.01 0c-0.02,0 -0.04,0 -0.05,-0.01 -0.01,-0.01 -0.01,-0.02 -0.01,-0.04 0,-0.01 0,-0.02 0.01,-0.03 0.01,-0.01 0.03,-0.01 0.05,-0.01zm-0.12 0.35c0,0.03 -0.01,0.06 -0.03,0.09 -0.01,0.03 -0.04,0.05 -0.07,0.06 -0.04,0.01 -0.08,0.02 -0.13,0.02 -0.05,0 -0.09,-0.01 -0.12,-0.02 -0.04,-0.02 -0.06,-0.04 -0.08,-0.06 -0.01,-0.02 -0.02,-0.04 -0.02,-0.06 0,-0.02 0,-0.03 0.01,-0.04 0.02,-0.01 0.03,-0.01 0.04,-0.01 0.02,0 0.03,0 0.04,0.01 0,0 0.01,0.01 0.02,0.02 0.01,0.03 0.03,0.05 0.05,0.06 0.01,0.01 0.04,0.01 0.07,0.01 0.03,0 0.05,0 0.07,-0.01 0.01,-0.02 0.02,-0.03 0.02,-0.04 0,-0.03 -0.01,-0.04 -0.02,-0.05 -0.02,-0.02 -0.05,-0.03 -0.09,-0.03 -0.05,-0.02 -0.08,-0.03 -0.11,-0.04 -0.03,-0.01 -0.05,-0.03 -0.07,-0.05 -0.02,-0.02 -0.02,-0.04 -0.02,-0.07 0,-0.03 0,-0.06 0.02,-0.08 0.01,-0.02 0.04,-0.04 0.07,-0.05 0.03,-0.02 0.07,-0.03 0.11,-0.03 0.03,0 0.06,0.01 0.09,0.01 0.03,0.01 0.05,0.02 0.07,0.03 0.02,0.02 0.03,0.03 0.04,0.04 0.01,0.02 0.01,0.03 0.01,0.05 0,0.01 0,0.02 -0.01,0.03 -0.01,0.01 -0.03,0.02 -0.04,0.02 -0.02,0 -0.03,-0.01 -0.04,-0.01 -0.01,-0.01 -0.02,-0.02 -0.03,-0.04 -0.01,-0.01 -0.02,-0.02 -0.04,-0.03 -0.01,-0.01 -0.03,-0.01 -0.05,-0.01 -0.02,0 -0.04,0 -0.06,0.01 -0.02,0.01 -0.02,0.03 -0.02,0.04 0,0.02 0,0.03 0.01,0.04 0.02,0 0.03,0.01 0.05,0.02 0.02,0 0.05,0.01 0.08,0.02 0.04,0.01 0.08,0.02 0.1,0.03 0.03,0.02 0.05,0.03 0.06,0.05 0.01,0.02 0.02,0.04 0.02,0.07zm-0.9 -0.29l0 0.01c0.02,-0.03 0.05,-0.05 0.08,-0.06 0.02,-0.02 0.06,-0.03 0.09,-0.03 0.04,0 0.07,0.01 0.09,0.03 0.03,0.01 0.05,0.03 0.07,0.06 0,0.02 0.01,0.03 0.01,0.05 0,0.02 0.01,0.05 0.01,0.07l0 0.25c0,0.03 -0.01,0.05 -0.02,0.06 -0.01,0.01 -0.03,0.02 -0.05,0.02 -0.02,0 -0.03,-0.01 -0.05,-0.02 -0.01,-0.02 -0.02,-0.04 -0.02,-0.06l0 -0.22c0,-0.04 0,-0.08 -0.01,-0.1 -0.02,-0.02 -0.04,-0.03 -0.08,-0.03 -0.02,0 -0.04,0 -0.06,0.02 -0.02,0.01 -0.03,0.03 -0.04,0.05 -0.01,0.02 -0.01,0.06 -0.01,0.11l0 0.17c0,0.03 -0.01,0.05 -0.02,0.06 -0.01,0.01 -0.03,0.02 -0.05,0.02 -0.02,0 -0.03,-0.01 -0.04,-0.02 -0.02,-0.02 -0.02,-0.04 -0.02,-0.06l0 -0.38c0,-0.03 0,-0.04 0.01,-0.06 0.01,-0.01 0.03,-0.02 0.05,-0.02 0.01,0 0.02,0.01 0.03,0.01 0.01,0.01 0.02,0.02 0.02,0.03 0.01,0.01 0.01,0.02 0.01,0.04zm-0.35 0.19c0,-0.05 -0.02,-0.09 -0.04,-0.12 -0.02,-0.03 -0.05,-0.05 -0.09,-0.05 -0.03,0 -0.05,0.01 -0.07,0.02 -0.02,0.02 -0.04,0.03 -0.05,0.06 -0.01,0.03 -0.01,0.06 -0.01,0.09 0,0.04 0,0.07 0.01,0.09 0.01,0.03 0.03,0.05 0.05,0.06 0.02,0.01 0.04,0.02 0.07,0.02 0.04,0 0.07,-0.01 0.09,-0.04 0.02,-0.03 0.04,-0.08 0.04,-0.13zm0.13 0c0,0.04 -0.01,0.08 -0.02,0.11 -0.01,0.03 -0.03,0.06 -0.05,0.09 -0.03,0.02 -0.05,0.04 -0.09,0.05 -0.03,0.01 -0.06,0.02 -0.1,0.02 -0.04,0 -0.08,-0.01 -0.11,-0.02 -0.03,-0.01 -0.06,-0.03 -0.08,-0.06 -0.03,-0.02 -0.05,-0.05 -0.06,-0.08 -0.01,-0.03 -0.02,-0.07 -0.02,-0.11 0,-0.04 0.01,-0.07 0.02,-0.11 0.02,-0.03 0.03,-0.06 0.06,-0.08 0.02,-0.03 0.05,-0.04 0.08,-0.06 0.03,-0.01 0.07,-0.02 0.11,-0.02 0.04,0 0.07,0.01 0.1,0.02 0.04,0.02 0.06,0.03 0.09,0.06 0.02,0.02 0.04,0.05 0.05,0.08 0.01,0.04 0.02,0.07 0.02,0.11zm-0.61 0.11c0,0.01 0,0.03 -0.01,0.05 -0.01,0.02 -0.03,0.03 -0.05,0.05 -0.02,0.02 -0.04,0.03 -0.07,0.04 -0.03,0.01 -0.07,0.02 -0.11,0.02 -0.08,0 -0.14,-0.03 -0.19,-0.07 -0.04,-0.05 -0.07,-0.11 -0.07,-0.19 0,-0.06 0.02,-0.11 0.04,-0.15 0.02,-0.04 0.05,-0.07 0.09,-0.09 0.04,-0.03 0.08,-0.04 0.14,-0.04 0.03,0 0.06,0.01 0.09,0.02 0.03,0.01 0.05,0.02 0.07,0.04 0.02,0.01 0.04,0.03 0.05,0.05 0.01,0.02 0.01,0.03 0.01,0.05 0,0.01 0,0.03 -0.01,0.04 -0.01,0.01 -0.03,0.01 -0.05,0.01 -0.01,0 -0.02,0 -0.02,0 -0.01,-0.01 -0.02,-0.02 -0.03,-0.03 -0.01,-0.03 -0.03,-0.04 -0.05,-0.06 -0.01,-0.01 -0.04,-0.02 -0.06,-0.02 -0.04,0 -0.07,0.02 -0.1,0.05 -0.02,0.03 -0.03,0.07 -0.03,0.12 0,0.03 0,0.05 0.01,0.07 0,0.02 0.01,0.04 0.02,0.06 0.01,0.01 0.03,0.02 0.04,0.03 0.02,0.01 0.04,0.01 0.06,0.01 0.02,0 0.05,-0.01 0.07,-0.02 0.01,-0.01 0.03,-0.03 0.05,-0.05 0,-0.02 0.01,-0.03 0.02,-0.04 0.01,-0.01 0.02,-0.01 0.04,-0.01 0.01,0 0.03,0.01 0.04,0.02 0.01,0.01 0.01,0.02 0.01,0.04zm-0.98 -0.11c-0.02,0.01 -0.05,0.02 -0.08,0.03 -0.04,0 -0.06,0.01 -0.08,0.01 -0.01,0.01 -0.03,0.02 -0.04,0.03 -0.01,0.01 -0.02,0.02 -0.02,0.04 0,0.02 0.01,0.04 0.02,0.05 0.02,0.02 0.04,0.02 0.06,0.02 0.03,0 0.05,0 0.08,-0.01 0.02,-0.02 0.03,-0.03 0.04,-0.05 0.02,-0.02 0.02,-0.05 0.02,-0.1l0 -0.02zm0.01 0.19c-0.03,0.03 -0.06,0.05 -0.09,0.06 -0.03,0.01 -0.07,0.02 -0.1,0.02 -0.04,0 -0.07,-0.01 -0.09,-0.02 -0.03,-0.01 -0.05,-0.03 -0.06,-0.06 -0.01,-0.02 -0.02,-0.04 -0.02,-0.07 0,-0.04 0.01,-0.07 0.03,-0.09 0.03,-0.03 0.06,-0.04 0.1,-0.05 0.01,0 0.03,-0.01 0.06,-0.02 0.03,0 0.06,-0.01 0.08,-0.01 0.03,-0.01 0.05,-0.02 0.08,-0.02 0,-0.04 -0.01,-0.06 -0.02,-0.08 -0.01,-0.02 -0.04,-0.02 -0.08,-0.02 -0.03,0 -0.05,0 -0.07,0.01 -0.02,0.01 -0.03,0.02 -0.05,0.04 -0.01,0.02 -0.02,0.03 -0.02,0.04 -0.01,0 -0.02,0.01 -0.03,0.01 -0.02,0 -0.03,-0.01 -0.04,-0.02 -0.01,-0.01 -0.02,-0.02 -0.02,-0.03 0,-0.03 0.01,-0.05 0.03,-0.07 0.01,-0.02 0.04,-0.04 0.07,-0.06 0.04,-0.01 0.08,-0.02 0.13,-0.02 0.06,0 0.11,0.01 0.14,0.02 0.03,0.02 0.06,0.04 0.07,0.07 0.01,0.03 0.02,0.07 0.02,0.12 0,0.03 0,0.05 0,0.07 0,0.03 0,0.05 0,0.08 0,0.02 0,0.05 0.01,0.07 0.01,0.03 0.01,0.05 0.01,0.06 0,0.01 0,0.02 -0.01,0.03 -0.02,0.01 -0.03,0.02 -0.05,0.02 -0.01,0 -0.02,-0.01 -0.04,-0.02 -0.01,-0.01 -0.03,-0.03 -0.04,-0.06zm-0.85 -0.19c0,0.04 0.01,0.07 0.02,0.09 0.01,0.03 0.03,0.05 0.05,0.06 0.01,0.01 0.04,0.02 0.06,0.02 0.02,0 0.04,-0.01 0.06,-0.02 0.02,-0.01 0.04,-0.03 0.05,-0.06 0.01,-0.02 0.01,-0.05 0.01,-0.09 0,-0.03 0,-0.06 -0.01,-0.09 -0.01,-0.02 -0.03,-0.04 -0.05,-0.06 -0.02,-0.01 -0.04,-0.02 -0.06,-0.02 -0.03,0 -0.05,0.01 -0.07,0.02 -0.02,0.02 -0.03,0.04 -0.04,0.06 -0.01,0.03 -0.02,0.06 -0.02,0.09zm0.26 0.19l0 -0.01c-0.02,0.02 -0.03,0.04 -0.05,0.05 -0.02,0.01 -0.04,0.02 -0.06,0.03 -0.02,0.01 -0.04,0.01 -0.06,0.01 -0.03,0 -0.06,-0.01 -0.09,-0.02 -0.03,-0.01 -0.05,-0.03 -0.07,-0.06 -0.02,-0.02 -0.03,-0.05 -0.04,-0.09 -0.01,-0.03 -0.02,-0.06 -0.02,-0.1 0,-0.09 0.02,-0.15 0.06,-0.2 0.04,-0.04 0.09,-0.06 0.16,-0.06 0.04,0 0.07,0 0.1,0.01 0.02,0.02 0.05,0.04 0.07,0.07l0 -0.2c0,-0.03 0.01,-0.05 0.02,-0.06 0.01,-0.01 0.02,-0.02 0.04,-0.02 0.02,0 0.04,0.01 0.05,0.02 0.01,0.01 0.02,0.03 0.02,0.05l0 0.58c0,0.03 -0.01,0.05 -0.02,0.06 -0.01,0.01 -0.03,0.02 -0.05,0.02 -0.01,0 -0.03,-0.01 -0.04,-0.02 -0.01,-0.01 -0.02,-0.03 -0.02,-0.06zm6.42 -0.19c0,0.04 -0.01,0.08 -0.02,0.11 -0.01,0.03 -0.03,0.06 -0.06,0.09 -0.02,0.02 -0.05,0.04 -0.08,0.05 -0.03,0.01 -0.07,0.02 -0.11,0.02 -0.04,0 -0.07,-0.01 -0.1,-0.02 -0.04,-0.01 -0.06,-0.03 -0.09,-0.06 -0.02,-0.02 -0.04,-0.05 -0.05,-0.08 -0.01,-0.03 -0.02,-0.07 -0.02,-0.11 0,-0.04 0.01,-0.07 0.02,-0.11 0.01,-0.03 0.03,-0.06 0.05,-0.08 0.03,-0.03 0.05,-0.04 0.09,-0.06 0.03,-0.01 0.06,-0.02 0.1,-0.02 0.04,0 0.08,0.01 0.11,0.02 0.03,0.02 0.06,0.03 0.09,0.06 0.02,0.02 0.04,0.05 0.05,0.08 0.01,0.04 0.02,0.07 0.02,0.11zm-0.14 0c0,-0.05 -0.01,-0.09 -0.03,-0.12 -0.02,-0.03 -0.06,-0.05 -0.1,-0.05 -0.02,0 -0.04,0.01 -0.06,0.02 -0.02,0.02 -0.04,0.03 -0.05,0.06 -0.01,0.03 -0.02,0.06 -0.02,0.09 0,0.04 0.01,0.07 0.02,0.09 0.01,0.03 0.03,0.05 0.05,0.06 0.01,0.01 0.04,0.02 0.06,0.02 0.04,0 0.08,-0.01 0.1,-0.04 0.02,-0.03 0.03,-0.08 0.03,-0.13zm-4.03 -2.4c0,0.16 0.02,0.31 0.06,0.43 0.04,0.13 0.09,0.24 0.17,0.32 0.07,0.09 0.16,0.15 0.25,0.2 0.1,0.04 0.21,0.06 0.33,0.06 0.1,0 0.2,-0.02 0.29,-0.06 0.08,-0.05 0.16,-0.11 0.24,-0.2 0.07,-0.09 0.13,-0.2 0.17,-0.33 0.03,-0.13 0.05,-0.28 0.05,-0.45 0,-0.1 -0.01,-0.21 -0.02,-0.3 -0.02,-0.09 -0.04,-0.18 -0.07,-0.26 -0.03,-0.07 -0.07,-0.14 -0.11,-0.2 -0.05,-0.06 -0.1,-0.11 -0.15,-0.16 -0.06,-0.04 -0.12,-0.07 -0.19,-0.09 -0.06,-0.02 -0.13,-0.03 -0.21,-0.03 -0.08,0 -0.15,0.01 -0.22,0.03 -0.07,0.02 -0.13,0.05 -0.19,0.09 -0.06,0.05 -0.12,0.1 -0.17,0.16 -0.04,0.06 -0.09,0.13 -0.12,0.21 -0.04,0.08 -0.06,0.17 -0.08,0.27 -0.02,0.09 -0.03,0.2 -0.03,0.31zm5.19 0.64c0,0.11 -0.03,0.22 -0.09,0.34 -0.06,0.11 -0.16,0.23 -0.28,0.33 -0.13,0.11 -0.29,0.19 -0.48,0.26 -0.2,0.06 -0.42,0.1 -0.66,0.1 -0.51,0 -0.91,-0.15 -1.2,-0.45 -0.1,-0.1 -0.18,-0.21 -0.24,-0.33 -0.01,0.02 -0.02,0.04 -0.02,0.05 -0.05,0.1 -0.11,0.18 -0.17,0.26 -0.06,0.08 -0.13,0.15 -0.2,0.21 -0.08,0.06 -0.16,0.11 -0.25,0.15 -0.09,0.04 -0.18,0.08 -0.28,0.1 -0.09,0.02 -0.19,0.03 -0.3,0.03 -0.06,0 -0.13,0 -0.19,-0.01 -0.06,-0.01 -0.12,-0.02 -0.17,-0.04 -0.06,-0.01 -0.11,-0.03 -0.16,-0.05 -0.05,-0.02 -0.1,-0.04 -0.14,-0.07 -0.04,-0.02 -0.07,-0.05 -0.11,-0.08 -0.03,-0.02 -0.06,-0.05 -0.09,-0.08 -0.03,-0.02 -0.06,-0.06 -0.1,-0.1 -0.03,-0.03 -0.06,-0.06 -0.1,-0.1l0 0.04c0,0.08 -0.01,0.15 -0.03,0.21 -0.01,0.06 -0.04,0.11 -0.08,0.15 -0.04,0.05 -0.09,0.08 -0.14,0.1 -0.05,0.02 -0.1,0.03 -0.16,0.03 -0.06,0 -0.12,-0.01 -0.17,-0.03 -0.02,-0.01 -0.04,-0.02 -0.05,-0.03 -0.06,0.03 -0.12,0.04 -0.19,0.04 -0.09,0 -0.17,-0.04 -0.25,-0.12 -0.09,-0.08 -0.18,-0.19 -0.27,-0.34 -0.2,0.15 -0.4,0.27 -0.58,0.35 -0.19,0.07 -0.4,0.11 -0.64,0.11 -0.21,0 -0.4,-0.04 -0.56,-0.12 -0.16,-0.09 -0.29,-0.2 -0.37,-0.35 -0.09,-0.14 -0.14,-0.3 -0.14,-0.47 0,-0.22 0.08,-0.42 0.22,-0.58 0.15,-0.16 0.34,-0.27 0.6,-0.32 0.05,-0.01 0.18,-0.04 0.39,-0.08 0.21,-0.05 0.39,-0.09 0.54,-0.12 0.15,-0.04 0.31,-0.08 0.48,-0.13 -0.01,-0.22 -0.05,-0.38 -0.13,-0.48 -0.08,-0.11 -0.24,-0.16 -0.48,-0.16 -0.22,0 -0.38,0.03 -0.48,0.09 -0.11,0.06 -0.2,0.15 -0.28,0.27 -0.07,0.11 -0.13,0.19 -0.16,0.23 -0.03,0.04 -0.1,0.05 -0.2,0.05 -0.09,0 -0.18,-0.03 -0.24,-0.09 -0.07,-0.05 -0.11,-0.13 -0.11,-0.23 0,-0.14 0.06,-0.29 0.16,-0.42 0.1,-0.14 0.27,-0.26 0.48,-0.35 0.22,-0.08 0.5,-0.13 0.83,-0.13 0.36,0 0.65,0.04 0.86,0.13 0.14,0.06 0.25,0.14 0.33,0.24l0 -1.09c0,-0.08 0.01,-0.16 0.03,-0.22 0.02,-0.07 0.04,-0.13 0.08,-0.17 0.04,-0.05 0.08,-0.08 0.13,-0.1 0.05,-0.03 0.1,-0.04 0.17,-0.04 0.06,0 0.12,0.01 0.17,0.04 0.06,0.02 0.1,0.05 0.14,0.09 0.03,0.05 0.06,0.1 0.08,0.16 0.01,0.06 0.02,0.13 0.02,0.21l0 1.23c0.07,-0.07 0.14,-0.13 0.21,-0.19 0.08,-0.06 0.17,-0.12 0.25,-0.16 0.08,-0.05 0.17,-0.08 0.28,-0.1 0.1,-0.02 0.21,-0.03 0.33,-0.03 0.14,0 0.27,0.01 0.39,0.05 0.13,0.03 0.24,0.08 0.35,0.15 0.1,0.06 0.2,0.14 0.28,0.24 0.08,0.1 0.15,0.21 0.21,0.33l0 0.02c0.13,-0.25 0.32,-0.44 0.56,-0.57 0.25,-0.15 0.55,-0.22 0.89,-0.22 0.22,0 0.42,0.03 0.6,0.1 0.18,0.06 0.33,0.14 0.45,0.24 0.13,0.1 0.22,0.21 0.29,0.32 0.07,0.11 0.1,0.22 0.1,0.32 0,0.1 -0.04,0.18 -0.11,0.25 -0.08,0.07 -0.17,0.1 -0.27,0.1 -0.07,0 -0.13,-0.02 -0.17,-0.05 -0.05,-0.04 -0.1,-0.09 -0.16,-0.17 -0.1,-0.16 -0.21,-0.27 -0.32,-0.35 -0.11,-0.08 -0.25,-0.12 -0.42,-0.12 -0.24,0 -0.44,0.1 -0.59,0.29 -0.15,0.19 -0.23,0.46 -0.23,0.79 0,0.16 0.02,0.3 0.06,0.43 0.04,0.13 0.09,0.24 0.17,0.34 0.07,0.09 0.16,0.16 0.26,0.21 0.11,0.04 0.22,0.07 0.34,0.07 0.17,0 0.31,-0.04 0.43,-0.12 0.12,-0.07 0.23,-0.19 0.32,-0.35 0.05,-0.1 0.1,-0.17 0.16,-0.22 0.06,-0.05 0.13,-0.08 0.22,-0.08 0.1,0 0.19,0.04 0.25,0.12 0.07,0.07 0.1,0.16 0.1,0.24zm-6.63 -0.64c-0.12,0.04 -0.29,0.09 -0.53,0.14 -0.23,0.05 -0.39,0.09 -0.48,0.11 -0.09,0.02 -0.18,0.07 -0.26,0.14 -0.08,0.07 -0.12,0.16 -0.12,0.28 0,0.13 0.05,0.24 0.15,0.33 0.09,0.08 0.21,0.13 0.37,0.13 0.16,0 0.32,-0.04 0.46,-0.11 0.13,-0.07 0.24,-0.16 0.3,-0.28 0.08,-0.13 0.11,-0.33 0.11,-0.62l0 -0.12zm1.44 0c0,0.16 0.02,0.31 0.06,0.43 0.04,0.13 0.09,0.24 0.17,0.32 0.07,0.09 0.16,0.15 0.25,0.2 0.1,0.04 0.21,0.06 0.33,0.06 0.1,0 0.2,-0.02 0.29,-0.06 0.08,-0.05 0.16,-0.11 0.24,-0.2 0.07,-0.09 0.13,-0.2 0.17,-0.33 0.03,-0.13 0.05,-0.28 0.05,-0.45 0,-0.1 -0.01,-0.21 -0.02,-0.3 -0.02,-0.09 -0.04,-0.18 -0.07,-0.26 -0.03,-0.07 -0.07,-0.14 -0.11,-0.2 -0.05,-0.06 -0.1,-0.11 -0.15,-0.16 -0.06,-0.04 -0.12,-0.07 -0.19,-0.09 -0.06,-0.02 -0.13,-0.03 -0.21,-0.03 -0.08,0 -0.15,0.01 -0.22,0.03 -0.07,0.02 -0.13,0.05 -0.19,0.09 -0.06,0.05 -0.12,0.1 -0.17,0.16 -0.04,0.06 -0.09,0.13 -0.12,0.21 -0.04,0.08 -0.06,0.17 -0.08,0.27 -0.02,0.09 -0.03,0.2 -0.03,0.31zm0.03 0.44c-0.04,-0.13 -0.06,-0.27 -0.06,-0.44 0,-0.11 0.01,-0.22 0.03,-0.32 0.02,-0.1 0.04,-0.19 0.08,-0.27 0.04,-0.08 0.08,-0.16 0.13,-0.22 0.05,-0.06 0.1,-0.12 0.17,-0.16 0.06,-0.05 0.13,-0.08 0.2,-0.1 0.07,-0.02 0.15,-0.03 0.23,-0.03 0.08,0 0.15,0.01 0.22,0.03 0.07,0.02 0.14,0.05 0.2,0.1 0.05,0.04 0.11,0.1 0.15,0.16 0.05,0.06 0.09,0.13 0.12,0.21 0.03,0.08 0.05,0.17 0.07,0.26 0.02,0.1 0.02,0.2 0.02,0.31 0,0.18 -0.02,0.33 -0.05,0.46 -0.04,0.13 -0.1,0.24 -0.18,0.34 -0.07,0.09 -0.16,0.16 -0.25,0.21 -0.09,0.04 -0.19,0.07 -0.3,0.07 -0.13,0 -0.24,-0.03 -0.34,-0.07 -0.1,-0.05 -0.19,-0.12 -0.27,-0.21 -0.08,-0.09 -0.13,-0.2 -0.17,-0.33zm-0.07 -2.91l0 1.23c0.07,-0.07 0.14,-0.13 0.21,-0.19 0.08,-0.06 0.17,-0.12 0.25,-0.16 0.08,-0.05 0.17,-0.08 0.28,-0.1 0.1,-0.02 0.21,-0.03 0.33,-0.03 0.14,0 0.27,0.01 0.39,0.05 0.13,0.03 0.24,0.08 0.35,0.15 0.1,0.06 0.2,0.14 0.28,0.24 0.08,0.1 0.15,0.21 0.21,0.33 0.06,0.13 0.1,0.27 0.13,0.41 0.03,0.15 0.04,0.31 0.04,0.49 0,0.12 -0.01,0.24 -0.02,0.36 -0.02,0.12 -0.04,0.23 -0.08,0.33 -0.03,0.11 -0.07,0.21 -0.11,0.3 -0.05,0.1 -0.11,0.18 -0.17,0.26 -0.06,0.08 -0.13,0.15 -0.2,0.21 -0.08,0.06 -0.16,0.11 -0.25,0.15 -0.09,0.04 -0.18,0.08 -0.28,0.1 -0.09,0.02 -0.19,0.03 -0.3,0.03 -0.06,0 -0.13,0 -0.19,-0.01 -0.06,-0.01 -0.12,-0.02 -0.17,-0.04 -0.06,-0.01 -0.11,-0.03 -0.16,-0.05 -0.05,-0.02 -0.1,-0.04 -0.14,-0.07 -0.04,-0.02 -0.07,-0.05 -0.11,-0.08 -0.03,-0.02 -0.06,-0.05 -0.09,-0.08 -0.03,-0.02 -0.06,-0.06 -0.1,-0.1 -0.03,-0.03 -0.06,-0.06 -0.1,-0.1l0 0.04c0,0.08 -0.01,0.15 -0.03,0.21 -0.01,0.06 -0.04,0.11 -0.08,0.15 -0.04,0.05 -0.09,0.08 -0.14,0.1 -0.05,0.02 -0.1,0.03 -0.16,0.03 -0.06,0 -0.12,-0.01 -0.17,-0.03 -0.05,-0.02 -0.09,-0.06 -0.13,-0.1 -0.03,-0.04 -0.06,-0.09 -0.08,-0.15 -0.02,-0.06 -0.03,-0.13 -0.03,-0.21l0 -3.64c0,-0.08 0.01,-0.16 0.03,-0.22 0.02,-0.07 0.04,-0.13 0.08,-0.17 0.04,-0.05 0.08,-0.08 0.13,-0.1 0.05,-0.03 0.1,-0.04 0.17,-0.04 0.06,0 0.12,0.01 0.17,0.04 0.06,0.02 0.1,0.05 0.14,0.09 0.03,0.05 0.06,0.1 0.08,0.16 0.01,0.06 0.02,0.13 0.02,0.21zm-0.03 1.27l0 -1.27c0,-0.08 -0.01,-0.15 -0.02,-0.2 -0.02,-0.06 -0.05,-0.11 -0.08,-0.15 -0.03,-0.04 -0.07,-0.06 -0.12,-0.08 -0.05,-0.02 -0.1,-0.03 -0.16,-0.03 -0.06,0 -0.11,0.01 -0.16,0.03 -0.04,0.02 -0.08,0.05 -0.12,0.09 -0.03,0.04 -0.05,0.09 -0.07,0.15 -0.02,0.07 -0.02,0.14 -0.02,0.22l0 3.64c0,0.07 0,0.14 0.02,0.2 0.02,0.06 0.04,0.1 0.08,0.14 0.03,0.04 0.07,0.07 0.12,0.09 0.04,0.02 0.09,0.03 0.15,0.03 0.05,0 0.1,-0.01 0.15,-0.03 0.05,-0.02 0.09,-0.05 0.12,-0.09 0.04,-0.04 0.07,-0.08 0.08,-0.14 0.02,-0.06 0.03,-0.13 0.03,-0.2l0 -0.13 0.03 0.03c0.04,0.06 0.09,0.1 0.12,0.14 0.04,0.04 0.07,0.07 0.1,0.1 0.03,0.03 0.06,0.05 0.09,0.08 0.04,0.02 0.07,0.05 0.11,0.07 0.04,0.03 0.08,0.05 0.13,0.07 0.05,0.02 0.1,0.04 0.15,0.05 0.06,0.02 0.12,0.03 0.18,0.04 0.06,0 0.12,0.01 0.18,0.01 0.1,0 0.2,-0.01 0.3,-0.03 0.09,-0.03 0.18,-0.06 0.27,-0.1 0.08,-0.04 0.16,-0.09 0.24,-0.15 0.07,-0.06 0.14,-0.13 0.2,-0.2 0.06,-0.08 0.11,-0.16 0.16,-0.25 0.04,-0.09 0.08,-0.19 0.11,-0.29 0.04,-0.11 0.06,-0.22 0.08,-0.33 0.01,-0.12 0.02,-0.24 0.02,-0.36 0,-0.17 -0.01,-0.33 -0.04,-0.48 -0.03,-0.15 -0.07,-0.28 -0.13,-0.4 -0.06,-0.13 -0.13,-0.23 -0.21,-0.33 -0.08,-0.09 -0.17,-0.17 -0.27,-0.24 -0.1,-0.06 -0.21,-0.11 -0.33,-0.14 -0.12,-0.03 -0.25,-0.05 -0.39,-0.05 -0.12,0 -0.23,0.01 -0.33,0.03 -0.1,0.02 -0.19,0.05 -0.27,0.1 -0.08,0.04 -0.16,0.09 -0.24,0.15 -0.08,0.07 -0.15,0.14 -0.23,0.22l-0.03 0.03 0 -0.04z"/>
 </g>
</svg>
