<?xml version="1.0" encoding="UTF-8"?>
<!DOCTYPE svg PUBLIC "-//W3C//DTD SVG 1.1//EN" "http://www.w3.org/Graphics/SVG/1.1/DTD/svg11.dtd">
<!-- Creator: CorelDRAW 2020 (64 Bit) -->
<svg xmlns="http://www.w3.org/2000/svg" xml:space="preserve" width="199px" height="77px" version="1.1" style="shape-rendering:geometricPrecision; text-rendering:geometricPrecision; image-rendering:optimizeQuality; fill-rule:evenodd; clip-rule:evenodd"
viewBox="0 0 138.64 53.5"
 xmlns:xlink="http://www.w3.org/1999/xlink"
 xmlns:xodm="http://www.corel.com/coreldraw/odm/2003">
 <defs>
  <style type="text/css">
   <![CDATA[
    .fil0 {fill:#267A3F}
   ]]>
  </style>
 </defs>
 <g id="Camada_x0020_1">
  <metadata id="CorelCorpID_0Corel-Layer"/>
  <path class="fil0" d="M16.75 0c9.28,0 16.8,11.98 16.8,26.75 0,14.77 -7.52,26.75 -16.8,26.75 -1.65,0 -3.25,-0.39 -4.77,-1.1 0.77,-0.27 1.56,-0.6 2.35,-0.99 2.78,-1.35 5.04,-2.89 6.8,-4.66l4.87 -17.12 -12.94 0 -2.06 7.25 6.86 0 -1.55 5.44c-1.19,1.02 -2.52,1.89 -3.99,2.6 -1.47,0.71 -2.83,1.07 -4.09,1.07 -2.54,0 -4.23,-1.28 -5.08,-3.83 -0.85,-2.54 -0.54,-6.37 0.91,-11.47 1.34,-4.73 3.14,-8.29 5.37,-10.7 2.23,-2.41 4.66,-3.6 7.28,-3.6 1.73,0 3,0.61 3.81,1.82 0.8,1.23 1.12,2.9 0.94,5.01l6.45 -1.62c0.53,-3.96 0.07,-7.04 -1.37,-9.29 -1.44,-2.24 -4.02,-3.35 -7.71,-3.35 -2.84,0 -5.42,0.7 -7.74,2.13 -3.03,1.86 -5.69,4.54 -7.98,8.01 -1.17,1.78 -2.21,3.68 -3.11,5.72 0.62,-13.87 7.88,-24.82 16.75,-24.82zm20.94 24.12l2.13 -11.2 5.27 0 -0.36 1.89 -3.83 0 -0.47 2.49 3.56 0 -0.36 1.89 -3.56 0 -0.58 3.04 3.97 0 -0.36 1.89 -5.41 0zm6.64 0l2.13 -11.2 2.3 0c0.88,0 1.43,0.05 1.68,0.16 0.37,0.17 0.65,0.54 0.81,1.1 0.17,0.56 0.17,1.29 0,2.18 -0.13,0.69 -0.32,1.27 -0.57,1.74 -0.24,0.47 -0.51,0.84 -0.81,1.1 -0.29,0.27 -0.58,0.45 -0.84,0.53 -0.37,0.11 -0.87,0.17 -1.52,0.17l-0.94 0 -0.8 4.22 -1.44 0zm3.21 -9.31l-0.61 3.19 0.79 0c0.56,0 0.95,-0.06 1.16,-0.18 0.21,-0.11 0.4,-0.3 0.55,-0.55 0.16,-0.25 0.27,-0.54 0.33,-0.87 0.08,-0.41 0.07,-0.75 -0.03,-1.01 -0.1,-0.27 -0.26,-0.44 -0.48,-0.5 -0.16,-0.05 -0.5,-0.08 -1.02,-0.08l-0.69 0zm3.37 9.31l2.13 -11.2 1.44 0 -2.13 11.2 -1.44 0zm2.75 -2.28l1.44 -0.33c-0.03,0.41 0.03,0.73 0.17,0.94 0.14,0.22 0.37,0.32 0.69,0.32 0.35,0 0.63,-0.1 0.85,-0.3 0.15,-0.14 0.24,-0.34 0.29,-0.58 0.03,-0.16 0.02,-0.29 -0.02,-0.4 -0.05,-0.1 -0.18,-0.2 -0.4,-0.29 -1.03,-0.38 -1.66,-0.73 -1.9,-1.04 -0.32,-0.44 -0.41,-1.05 -0.26,-1.83 0.13,-0.71 0.42,-1.3 0.87,-1.78 0.44,-0.48 1.03,-0.72 1.77,-0.72 0.71,0 1.2,0.18 1.47,0.54 0.28,0.37 0.41,0.9 0.41,1.62l-1.36 0.37c0.01,-0.32 -0.05,-0.56 -0.17,-0.73 -0.13,-0.17 -0.33,-0.25 -0.62,-0.25 -0.36,0 -0.63,0.07 -0.82,0.23 -0.12,0.12 -0.2,0.26 -0.24,0.44 -0.03,0.15 -0.01,0.28 0.06,0.39 0.1,0.14 0.49,0.34 1.17,0.6 0.68,0.27 1.13,0.58 1.34,0.96 0.22,0.38 0.26,0.92 0.13,1.6 -0.14,0.74 -0.46,1.39 -0.96,1.92 -0.5,0.53 -1.13,0.8 -1.91,0.8 -0.7,0 -1.22,-0.22 -1.54,-0.67 -0.33,-0.44 -0.48,-1.05 -0.46,-1.81zm-11.87 17.07l0.5 -3.08 5.52 0 -1.17 7.27c-0.66,0.75 -1.54,1.41 -2.66,1.98 -1.1,0.57 -2.18,0.86 -3.23,0.86 -1.33,0 -2.42,-0.4 -3.28,-1.2 -0.86,-0.81 -1.41,-1.96 -1.67,-3.45 -0.26,-1.49 -0.25,-3.11 0.04,-4.86 0.3,-1.91 0.85,-3.6 1.64,-5.08 0.8,-1.47 1.79,-2.61 2.99,-3.4 0.91,-0.61 1.97,-0.91 3.18,-0.91 1.58,0 2.74,0.48 3.47,1.43 0.73,0.95 1.09,2.26 1.08,3.94l-2.67 0.69c-0.03,-0.89 -0.26,-1.6 -0.67,-2.12 -0.4,-0.52 -0.98,-0.78 -1.72,-0.78 -1.12,0 -2.09,0.51 -2.91,1.53 -0.83,1.02 -1.4,2.54 -1.73,4.55 -0.34,2.17 -0.27,3.79 0.22,4.87 0.5,1.09 1.29,1.63 2.37,1.63 0.54,0 1.1,-0.15 1.69,-0.46 0.59,-0.3 1.11,-0.67 1.57,-1.1l0.37 -2.31 -2.93 0zm6.73 6.7l2.94 -18.24 2.57 0 -2.93 18.24 -2.58 0zm5.02 0l2.94 -18.24 5.4 0c1.36,0 2.32,0.17 2.88,0.49 0.57,0.33 0.97,0.91 1.2,1.75 0.24,0.84 0.27,1.79 0.1,2.87 -0.22,1.37 -0.68,2.5 -1.39,3.39 -0.7,0.89 -1.62,1.45 -2.77,1.69 0.48,0.46 0.85,0.97 1.12,1.53 0.27,0.55 0.6,1.54 0.98,2.96l0.97 3.56 -3.06 0 -1.2 -3.99c-0.44,-1.41 -0.74,-2.3 -0.93,-2.67 -0.18,-0.36 -0.4,-0.62 -0.65,-0.75 -0.25,-0.14 -0.68,-0.21 -1.27,-0.21l-0.52 0 -1.22 7.62 -2.58 0zm4.27 -10.52l1.9 0c1.23,0 2.01,-0.08 2.34,-0.23 0.33,-0.15 0.61,-0.4 0.84,-0.77 0.24,-0.36 0.4,-0.82 0.48,-1.37 0.1,-0.62 0.07,-1.11 -0.1,-1.49 -0.17,-0.38 -0.45,-0.62 -0.85,-0.71 -0.2,-0.05 -0.82,-0.07 -1.86,-0.07l-2.01 0 -0.74 4.64zm9.47 1.51c0.3,-1.86 0.74,-3.42 1.34,-4.69 0.43,-0.93 0.96,-1.76 1.58,-2.5 0.62,-0.74 1.26,-1.29 1.91,-1.65 0.87,-0.48 1.82,-0.72 2.86,-0.72 1.87,0 3.24,0.84 4.1,2.5 0.85,1.68 1.04,4 0.56,6.97 -0.47,2.95 -1.41,5.26 -2.79,6.93 -1.38,1.66 -3.01,2.5 -4.88,2.5 -1.89,0 -3.26,-0.83 -4.11,-2.49 -0.85,-1.66 -1.04,-3.94 -0.57,-6.85zm2.66 -0.12c-0.33,2.06 -0.25,3.63 0.25,4.7 0.49,1.06 1.25,1.6 2.28,1.6 1.02,0 1.95,-0.53 2.78,-1.59 0.82,-1.06 1.41,-2.65 1.75,-4.76 0.34,-2.1 0.27,-3.66 -0.21,-4.69 -0.47,-1.03 -1.24,-1.54 -2.3,-1.54 -1.06,0 -2,0.52 -2.81,1.56 -0.82,1.04 -1.4,2.62 -1.74,4.72zm10.3 9.13l2.91 -18.09 2.57 0 -2.41 15 6.37 0 -0.49 3.09 -8.95 0zm13.71 -18.24l2.57 0 -1.59 9.88c-0.25,1.57 -0.38,2.59 -0.39,3.05 -0.01,0.75 0.15,1.35 0.48,1.8 0.34,0.45 0.86,0.68 1.57,0.68 0.72,0 1.3,-0.21 1.74,-0.64 0.43,-0.43 0.74,-0.95 0.91,-1.58 0.17,-0.62 0.38,-1.65 0.61,-3.1l1.62 -10.09 2.58 0 -1.54 9.59c-0.36,2.19 -0.67,3.74 -0.96,4.64 -0.28,0.91 -0.66,1.67 -1.13,2.3 -0.47,0.62 -1.05,1.11 -1.73,1.48 -0.68,0.37 -1.53,0.56 -2.53,0.56 -1.21,0 -2.09,-0.2 -2.65,-0.61 -0.56,-0.4 -0.97,-0.92 -1.23,-1.57 -0.26,-0.64 -0.39,-1.31 -0.39,-2.02 0,-1.05 0.16,-2.59 0.49,-4.63l1.57 -9.74zm13.14 18.24l-1.62 -18.24 2.78 0 1.06 13.5 5.27 -13.5 2.73 0 -7.45 18.24 -2.77 0zm18.72 0l-2.77 0 -0.43 -4.16 -5.1 0 -1.73 4.16 -2.72 0 7.87 -18.24 2.72 0 2.16 18.24zm-3.54 -7.24l-0.68 -6.75 -2.81 6.75 3.49 0zm5.18 1.33l2.56 -0.36c-0.04,1.2 0.12,2.08 0.49,2.65 0.37,0.56 0.94,0.84 1.72,0.84 0.82,0 1.48,-0.25 1.98,-0.75 0.5,-0.5 0.8,-1.09 0.91,-1.76 0.07,-0.43 0.04,-0.8 -0.09,-1.1 -0.12,-0.3 -0.39,-0.57 -0.79,-0.79 -0.27,-0.15 -0.91,-0.41 -1.92,-0.8 -1.29,-0.49 -2.15,-1.09 -2.59,-1.81 -0.61,-1 -0.8,-2.23 -0.57,-3.68 0.15,-0.93 0.47,-1.8 0.97,-2.61 0.49,-0.81 1.12,-1.43 1.88,-1.85 0.75,-0.43 1.62,-0.64 2.59,-0.64 1.59,0 2.71,0.51 3.35,1.52 0.64,1.01 0.84,2.36 0.61,4.06l-2.59 0.13c0.04,-0.95 -0.09,-1.62 -0.38,-2.03 -0.29,-0.42 -0.79,-0.62 -1.51,-0.62 -0.74,0 -1.36,0.22 -1.84,0.66 -0.32,0.28 -0.52,0.66 -0.59,1.14 -0.07,0.43 0,0.8 0.2,1.1 0.26,0.4 0.98,0.81 2.16,1.23 1.17,0.42 2.02,0.86 2.55,1.31 0.52,0.46 0.89,1.07 1.1,1.86 0.21,0.78 0.22,1.75 0.04,2.9 -0.17,1.04 -0.53,2.02 -1.08,2.94 -0.55,0.91 -1.23,1.59 -2.04,2.03 -0.82,0.45 -1.77,0.67 -2.88,0.67 -1.6,0 -2.75,-0.53 -3.44,-1.6 -0.69,-1.06 -0.96,-2.61 -0.8,-4.64z"/>
 </g>
</svg>
