<?xml version="1.0" encoding="UTF-8"?>
<!DOCTYPE svg PUBLIC "-//W3C//DTD SVG 1.1//EN" "http://www.w3.org/Graphics/SVG/1.1/DTD/svg11.dtd">
<!-- Creator: CorelDRAW 2020 (64 Bit) -->
<svg xmlns="http://www.w3.org/2000/svg" xml:space="preserve" width="199px" height="127px" version="1.1" style="shape-rendering:geometricPrecision; text-rendering:geometricPrecision; image-rendering:optimizeQuality; fill-rule:evenodd; clip-rule:evenodd"
viewBox="0 0 51.24 32.68"
 xmlns:xlink="http://www.w3.org/1999/xlink"
 xmlns:xodm="http://www.corel.com/coreldraw/odm/2003">
 <defs>
  <style type="text/css">
   <![CDATA[
    .fil0 {fill:#0A6DB7}
   ]]>
  </style>
 </defs>
 <g id="Camada_x0020_1">
  <metadata id="CorelCorpID_0Corel-Layer"/>
  <path class="fil0" d="M20.9 17.25l-1.62 -2.28 -14.57 0 -0.64 2.28 16.83 0zm-2.59 -3.64l-1.62 -2.29 -10.96 0 -0.64 2.29 13.22 0zm-2.59 -3.65l-1.62 -2.29 -7.36 0 -0.63 2.29 9.61 0zm-2.59 -3.65l-1.62 -2.28 -3.75 0 -0.64 2.28 6.01 0zm-2.59 -3.64l-1.72 -2.43 -0.68 2.43 2.4 0zm-6.85 15.94l-0.64 2.29 3.85 0 0.58 -1.88 1.15 1.88 15.82 0 1.47 -2.09 0.68 2.09 13.52 0 -0.76 -2.29 -35.67 0zm-1.02 3.65l-0.63 2.28 3.74 0 0.7 -2.28 -3.81 0zm-1.01 3.64l-0.64 2.29 3.63 0 0.71 -2.29 -3.7 0zm-1.02 3.65l-0.64 2.29 0.81 0 2.73 -0.02 0.7 -2.27 -3.6 0zm8.83 -7.29l1.4 2.28 11.01 0 1.61 -2.28 -14.02 0zm2.23 3.64l1.41 2.29 6.19 0 1.62 -2.29 -9.22 0zm2.24 3.65l1.41 2.29 1.38 0 1.61 -2.29 -4.4 0zm13.1 -7.29l0.74 2.28 13.55 0 -0.76 -2.28 -13.53 0zm1.18 3.64l0.75 2.29 3.04 0 0 -0.18 -1.16 0 0 -1.08 0.37 -0.11c0.12,-0.03 0.24,-0.08 0.37,-0.14 0.13,-0.06 0.26,-0.14 0.39,-0.23 0.14,-0.09 0.26,-0.19 0.38,-0.29 0.09,-0.08 0.17,-0.16 0.26,-0.26l-4.4 0zm6.14 2.29l1.88 0c0.19,-0.33 0.43,-0.62 0.74,-0.87 0.37,-0.3 0.79,-0.52 1.25,-0.67 0.45,-0.15 0.94,-0.22 1.48,-0.22 0.93,0 1.7,0.24 2.32,0.71 0.08,0.06 0.15,0.12 0.22,0.18l-0.47 -1.42 -7.42 0 0 0.69 1.7 0 0 1.41 -1.7 0.01 0 0.18zm3.97 0l1.8 0 -0.04 -0.03c-0.06,-0.05 -0.14,-0.1 -0.22,-0.15l-0.01 0c-0.1,-0.04 -0.2,-0.08 -0.29,-0.1 -0.1,-0.02 -0.2,-0.04 -0.31,-0.04 -0.17,0 -0.33,0.03 -0.47,0.07 -0.15,0.05 -0.28,0.12 -0.41,0.22l-0.01 0 -0.04 0.03zm-8.92 1.36l0.74 2.29 1.93 0 -0.02 -0.08c-0.03,-0.18 -0.05,-0.38 -0.05,-0.61l0 -1.6 -2.6 0zm6.72 2.29l0.35 0c-0.08,-0.1 -0.14,-0.19 -0.2,-0.29l-0.05 0.1c-0.03,0.06 -0.06,0.13 -0.1,0.19zm6.3 0l0.19 0 0 -0.05 0.51 0c0.16,0 0.31,0 0.42,-0.02 0.07,-0.01 0.12,-0.01 0.17,-0.02l-0.7 -2.11 0 0.01 -5 0c0.03,0.13 0.06,0.26 0.11,0.37 0.1,0.24 0.25,0.45 0.46,0.62 0.21,0.19 0.45,0.33 0.71,0.42 0.25,0.09 0.53,0.14 0.83,0.14 0.2,0 0.39,-0.02 0.55,-0.06 0.17,-0.04 0.32,-0.09 0.45,-0.17l0 0c0.13,-0.07 0.24,-0.16 0.35,-0.28 0.12,-0.14 0.23,-0.3 0.33,-0.5l0.23 -0.45 1.05 0.51 -0.08 0.39c-0.07,0.33 -0.2,0.65 -0.4,0.95 -0.05,0.09 -0.11,0.17 -0.18,0.25zm-6.59 -2.29l-1.48 0 0 1.47c0,0.13 0.01,0.23 0.03,0.3 0,0.03 -0.01,0.03 0,0.03l0 0.01c0.02,0.01 0.04,0.02 0.06,0.03 0.03,0.01 0.07,0.02 0.12,0.02 0.05,0 0.1,-0.01 0.14,-0.02 0.04,-0.01 0.09,-0.03 0.14,-0.05 0.04,-0.02 0.07,-0.04 0.1,-0.07 0.03,-0.02 0.05,-0.05 0.07,-0.09l0.15 -0.26 0.82 0c-0.11,-0.32 -0.16,-0.67 -0.16,-1.04 0,-0.11 0,-0.22 0.01,-0.33zm3.07 -12.3l-0.76 -2.28 -15.36 0 -1.59 2.28 17.71 0zm-1.21 -3.64l-0.76 -2.29 -11.61 0 -1.59 2.29 13.96 0zm-1.21 -3.65l-0.75 -2.29 -7.88 0 -1.59 2.29 10.22 0zm-1.21 -3.65l-0.75 -2.28 -4.14 0 -1.59 2.28 6.48 0zm-1.2 -3.64l-0.89 -2.67 -1.85 2.67 2.74 0zm-0.23 22.65l0 1.78 1.7 0 0 0.4 -1.7 0.01 0 3.51c0,0.35 0.06,0.59 0.2,0.71 0.13,0.13 0.31,0.19 0.52,0.19 0.18,0 0.34,-0.04 0.51,-0.13 0.16,-0.08 0.29,-0.2 0.38,-0.36l0.31 0c-0.18,0.39 -0.45,0.68 -0.79,0.88 -0.34,0.2 -0.69,0.3 -1.05,0.3 -0.25,0 -0.49,-0.05 -0.72,-0.15 -0.24,-0.11 -0.41,-0.25 -0.52,-0.44 -0.11,-0.19 -0.17,-0.47 -0.17,-0.87l0 -3.65 -1.16 0 0 -0.19c0.3,-0.09 0.6,-0.23 0.9,-0.44 0.31,-0.2 0.58,-0.45 0.83,-0.73 0.12,-0.15 0.29,-0.42 0.51,-0.82l0.25 0zm3.62 3.82c-0.01,0.81 0.25,1.43 0.78,1.89 0.54,0.45 1.16,0.68 1.88,0.68 0.48,0 0.89,-0.1 1.24,-0.29 0.36,-0.19 0.66,-0.53 0.89,-1l0.25 0.11c-0.11,0.55 -0.44,1.04 -0.97,1.49 -0.54,0.44 -1.21,0.66 -2.01,0.66 -0.88,0 -1.63,-0.25 -2.25,-0.76 -0.63,-0.51 -0.94,-1.19 -0.94,-2.04 0,-0.92 0.32,-1.65 0.96,-2.16 0.64,-0.52 1.44,-0.78 2.41,-0.78 0.81,0 1.49,0.2 2.01,0.6 0.53,0.4 0.79,0.93 0.79,1.6l-5.04 0zm0 -0.33l3.37 0c-0.02,-0.35 -0.08,-0.6 -0.16,-0.74 -0.13,-0.22 -0.33,-0.39 -0.6,-0.52 -0.26,-0.12 -0.53,-0.19 -0.82,-0.19 -0.44,0 -0.84,0.13 -1.18,0.39 -0.35,0.25 -0.55,0.6 -0.61,1.06zm8.19 -4.7l0 5.39 1.85 -1.26c0.39,-0.26 0.62,-0.43 0.68,-0.5 0.05,-0.05 0.07,-0.1 0.07,-0.15 0,-0.08 -0.05,-0.14 -0.14,-0.2 -0.08,-0.06 -0.23,-0.09 -0.43,-0.1l0 -0.19 3.17 0 0 0.19c-0.43,0.01 -0.79,0.06 -1.08,0.15 -0.29,0.09 -0.6,0.26 -0.95,0.49l-1.88 1.28 1.87 1.76c0.52,0.48 0.87,0.79 1.04,0.93 0.26,0.18 0.48,0.29 0.68,0.35 0.13,0.03 0.37,0.05 0.7,0.05l0 0.22 -3.55 0 0 -0.22c0.2,0 0.34,-0.02 0.41,-0.06 0.07,-0.05 0.11,-0.1 0.11,-0.18 0,-0.09 -0.11,-0.23 -0.32,-0.43l-2.23 -2.12 0 1.79c0,0.35 0.03,0.58 0.09,0.69 0.07,0.11 0.17,0.19 0.29,0.24 0.12,0.04 0.38,0.07 0.79,0.07l0 0.22 -3.7 0 0 -0.22c0.37,0 0.65,-0.03 0.83,-0.1 0.11,-0.04 0.2,-0.11 0.25,-0.19 0.08,-0.13 0.12,-0.36 0.12,-0.67l0 -4.94c0,-0.62 -0.01,-1 -0.05,-1.14 -0.04,-0.14 -0.1,-0.24 -0.18,-0.29 -0.09,-0.05 -0.2,-0.08 -0.34,-0.08 -0.11,0 -0.28,0.04 -0.5,0.1l-0.13 -0.22 2.16 -0.66 0.37 0z"/>
 </g>
</svg>
