<?xml version="1.0" encoding="UTF-8"?>
<!DOCTYPE svg PUBLIC "-//W3C//DTD SVG 1.1//EN" "http://www.w3.org/Graphics/SVG/1.1/DTD/svg11.dtd">
<!-- Creator: CorelDRAW 2020 (64 Bit) -->
<svg xmlns="http://www.w3.org/2000/svg" xml:space="preserve" width="28px" height="28px" version="1.1" style="shape-rendering:geometricPrecision; text-rendering:geometricPrecision; image-rendering:optimizeQuality; fill-rule:evenodd; clip-rule:evenodd"
viewBox="0 0 0.29 0.29"
 xmlns:xlink="http://www.w3.org/1999/xlink"
 xmlns:xodm="http://www.corel.com/coreldraw/odm/2003">
 <defs>
  <style type="text/css">
   <![CDATA[
    .fil0 {fill:#333333;fill-rule:nonzero}
   ]]>
  </style>
 </defs>
 <g id="Camada_x0020_1">
  <metadata id="CorelCorpID_0Corel-Layer"/>
  <g id="wats_x0020_icon">
   <path id="XMLID_469_" class="fil0" d="M0.22 0.17c-0.01,0 -0.03,-0.01 -0.03,-0.01 0,-0.01 0,-0.01 -0.01,-0.01 0,0 0,0.01 0,0.01 0,0 -0.01,0.01 -0.01,0.01 0,0 0,0 0,0 0,0 -0.01,0 -0.01,0 -0.02,-0.01 -0.04,-0.03 -0.04,-0.04 0,0 0,0 0,0 0,0 0,0 0,0 0,0 0,0 0,0 0,0 0.01,-0.01 0.01,-0.01 0,0 0,0 0,0l0 0c0,-0.01 0,-0.01 0,-0.01 0,0 -0.01,-0.02 -0.01,-0.03 0,0 -0.01,0 -0.01,0 0,0 0,0 0,0 0,0 -0.02,0 -0.02,0 0,0 -0.01,0.01 -0.01,0.03 0,0.02 0.01,0.03 0.01,0.04 0,0 0,0 0,0 0.02,0.02 0.04,0.04 0.06,0.05 0.02,0.01 0.03,0.01 0.04,0.01 0,0 0,0 0,0 0,0 0,0 0,0l0 0c0.01,0 0.03,-0.01 0.03,-0.02 0,-0.01 0,-0.02 0,-0.02 0,0 0,0 0,0z"/>
   <path id="XMLID_470_" class="fil0" d="M0.15 0c-0.08,0 -0.14,0.06 -0.14,0.14 0,0.03 0,0.05 0.01,0.07l-0.02 0.08c0,0 0,0 0,0 0,0 0,0 0,0 0,0 0,0 0,0l0.08 -0.02c0.02,0.01 0.04,0.01 0.07,0.01 0.08,0 0.14,-0.06 0.14,-0.14 0,-0.08 -0.06,-0.14 -0.14,-0.14zm0 0.25c-0.02,0 -0.05,0 -0.06,-0.01 0,0 -0.01,0 -0.01,0 0,0 0,0 0,0l-0.04 0.01 0.02 -0.04c0,0 0,0 0,0 -0.02,-0.02 -0.03,-0.04 -0.03,-0.07 0,-0.06 0.06,-0.11 0.12,-0.11 0.06,0 0.11,0.05 0.11,0.11 0,0.06 -0.05,0.11 -0.11,0.11z"/>
  </g>
 </g>
</svg>
