<?xml version="1.0" encoding="UTF-8"?>
<!DOCTYPE svg PUBLIC "-//W3C//DTD SVG 1.1//EN" "http://www.w3.org/Graphics/SVG/1.1/DTD/svg11.dtd">
<!-- Creator: CorelDRAW 2020 (64 Bit) -->
<svg xmlns="http://www.w3.org/2000/svg" xml:space="preserve" width="35px" height="36px" version="1.1" style="shape-rendering:geometricPrecision; text-rendering:geometricPrecision; image-rendering:optimizeQuality; fill-rule:evenodd; clip-rule:evenodd"
viewBox="0 0 0.46 0.49"
 xmlns:xlink="http://www.w3.org/1999/xlink"
 xmlns:xodm="http://www.corel.com/coreldraw/odm/2003">
 <defs>
  <style type="text/css">
   <![CDATA[
    .str0 {stroke:red;stroke-width:0.01;stroke-miterlimit:22.9256}
    .fil1 {fill:none;fill-rule:nonzero}
    .fil2 {fill:red}
    .fil0 {fill:#333333;fill-rule:nonzero}
   ]]>
  </style>
 </defs>
 <g id="Camada_x0020_1">
  <metadata id="CorelCorpID_0Corel-Layer"/>
  <path class="fil0" d="M0.02 0.2l0 0.02 -0.01 0 0 -0.02 0.01 0zm0.44 0.23l-0.02 0 0 0.01 0.02 0 0 -0.01zm-0.06 0l0 0.01 -0.01 0 0 -0.01 0.01 0zm-0.05 0l0 0.01 -0.02 0 0 -0.01 0.02 0zm-0.06 0l0 0.01 -0.01 0 0 -0.01 0.01 0zm-0.05 0l0 0.01 -0.02 0 0 -0.01 0.02 0zm-0.06 0l0 0.01 -0.01 0 0 -0.01 0.01 0zm-0.05 0l0 0.01 -0.01 0 0 -0.01 0.01 0zm-0.06 0l0 0.01 -0.01 0 0 -0.01 0.01 0zm-0.05 0l0 0.01 -0.01 0 0 -0.01 0.01 0zm0.44 -0.08l-0.02 0 0 0.02 0.02 0 0 -0.02zm-0.06 0l0 0.02 -0.01 0 0 -0.02 0.01 0zm-0.05 0l0 0.02 -0.02 0 0 -0.02 0.02 0zm-0.06 0l0 0.02 -0.01 0 0 -0.02 0.01 0zm-0.05 0l0 0.02 -0.02 0 0 -0.02 0.02 0zm-0.06 0l0 0.02 -0.01 0 0 -0.02 0.01 0zm-0.05 0l0 0.02 -0.01 0 0 -0.02 0.01 0zm-0.06 0l0 0.02 -0.01 0 0 -0.02 0.01 0zm-0.05 0l0 0.02 -0.01 0 0 -0.02 0.01 0zm0.44 -0.07l-0.02 0 0 0.01 0.02 0 0 -0.01zm-0.06 0l0 0.01 -0.01 0 0 -0.01 0.01 0zm-0.05 0l0 0.01 -0.02 0 0 -0.01 0.02 0zm-0.06 0l0 0.01 -0.01 0 0 -0.01 0.01 0zm-0.05 0l0 0.01 -0.02 0 0 -0.01 0.02 0zm-0.06 0l0 0.01 -0.01 0 0 -0.01 0.01 0zm-0.05 0l0 0.01 -0.01 0 0 -0.01 0.01 0zm-0.06 0l0 0.01 -0.01 0 0 -0.01 0.01 0zm-0.05 0l0 0.01 -0.01 0 0 -0.01 0.01 0zm0.44 -0.08l-0.02 0 0 0.02 0.02 0 0 -0.02zm-0.06 0l0 0.02 -0.01 0 0 -0.02 0.01 0zm-0.05 0l0 0.02 -0.02 0 0 -0.02 0.02 0zm-0.06 0l0 0.02 -0.01 0 0 -0.02 0.01 0zm-0.05 0l0 0.02 -0.02 0 0 -0.02 0.02 0zm-0.06 0l0 0.02 -0.01 0 0 -0.02 0.01 0zm-0.05 0l0 0.02 -0.01 0 0 -0.02 0.01 0zm-0.06 0l0 0.02 -0.01 0 0 -0.02 0.01 0z"/>
  <g>
   <path class="fil1 str0" d="M0.01 0.07l0.09 0 0 0.06 0.05 0 0 -0.06 0.16 0 0 0.06 0.05 0 0 -0.06 0.1 0 0 0.37c0,0.02 -0.02,0.04 -0.04,0.04l-0.38 0c-0.02,0 -0.03,-0.02 -0.03,-0.04l0 -0.37z"/>
  </g>
  <g>
   <polygon class="fil2" points="0.01,0.07 0.1,0.07 0.1,0.13 0.15,0.13 0.15,0.07 0.31,0.07 0.31,0.13 0.36,0.13 0.36,0.07 0.46,0.07 0.46,0.16 0.01,0.16 "/>
   <polygon id="1" class="fil1 str0" points="0.01,0.07 0.1,0.07 0.1,0.13 0.15,0.13 0.15,0.07 0.31,0.07 0.31,0.13 0.36,0.13 0.36,0.07 0.46,0.07 0.46,0.16 0.01,0.16 "/>
  </g>
  <g>
   <path class="fil1 str0" d="M0.31 0.01l0.05 0 0 0.12 -0.05 0 0 -0.12zm-0.21 0l0.05 0 0 0.12 -0.05 0 0 -0.12z"/>
  </g>
 </g>
</svg>
