<?xml version="1.0" encoding="UTF-8"?>
<!DOCTYPE svg PUBLIC "-//W3C//DTD SVG 1.1//EN" "http://www.w3.org/Graphics/SVG/1.1/DTD/svg11.dtd">
<!-- Creator: CorelDRAW 2020 (64 Bit) -->
<svg xmlns="http://www.w3.org/2000/svg" xml:space="preserve" width="201px" height="107px" version="1.1" style="shape-rendering:geometricPrecision; text-rendering:geometricPrecision; image-rendering:optimizeQuality; fill-rule:evenodd; clip-rule:evenodd"
viewBox="0 0 197.46 105.43"
 xmlns:xlink="http://www.w3.org/1999/xlink"
 xmlns:xodm="http://www.corel.com/coreldraw/odm/2003">
 <defs>
  <style type="text/css">
   <![CDATA[
    .fil0 {fill:#15124D}
   ]]>
  </style>
 </defs>
 <g id="Camada_x0020_1">
  <metadata id="CorelCorpID_0Corel-Layer"/>
  <path class="fil0" d="M0 0l197.46 0 0 105.43 -197.46 0 0 -105.43zm23.83 93.98l0 -13.83 4.76 0c1.08,0 1.9,0.07 2.46,0.2 0.79,0.18 1.47,0.51 2.03,0.99 0.73,0.62 1.27,1.4 1.63,2.36 0.37,0.96 0.55,2.06 0.55,3.29 0,1.05 -0.12,1.98 -0.37,2.79 -0.24,0.81 -0.56,1.48 -0.94,2.01 -0.39,0.53 -0.81,0.95 -1.26,1.26 -0.46,0.3 -1.01,0.53 -1.65,0.69 -0.65,0.16 -1.39,0.24 -2.22,0.24l-4.99 0zm1.83 -1.63l2.95 0c0.91,0 1.63,-0.08 2.14,-0.25 0.52,-0.17 0.93,-0.41 1.24,-0.72 0.43,-0.43 0.77,-1.02 1.01,-1.75 0.24,-0.74 0.37,-1.62 0.37,-2.67 0,-1.45 -0.24,-2.56 -0.71,-3.34 -0.48,-0.78 -1.05,-1.3 -1.73,-1.56 -0.49,-0.19 -1.28,-0.29 -2.37,-0.29l-2.9 0 0 10.58zm12.42 1.63l0 -13.83 1.83 0 0 13.83 -1.83 0zm4.46 -4.45l1.72 -0.15c0.08,0.7 0.27,1.26 0.57,1.71 0.29,0.45 0.76,0.81 1.39,1.08 0.62,0.28 1.33,0.42 2.12,0.42 0.69,0 1.31,-0.11 1.84,-0.32 0.54,-0.21 0.93,-0.49 1.19,-0.86 0.26,-0.36 0.4,-0.76 0.4,-1.18 0,-0.43 -0.13,-0.81 -0.38,-1.13 -0.25,-0.32 -0.67,-0.59 -1.25,-0.82 -0.37,-0.14 -1.19,-0.36 -2.46,-0.67 -1.27,-0.31 -2.16,-0.59 -2.66,-0.86 -0.66,-0.35 -1.15,-0.78 -1.48,-1.29 -0.32,-0.51 -0.48,-1.09 -0.48,-1.72 0,-0.71 0.2,-1.36 0.59,-1.96 0.4,-0.61 0.98,-1.07 1.74,-1.39 0.76,-0.31 1.6,-0.47 2.53,-0.47 1.03,0 1.93,0.16 2.71,0.5 0.79,0.32 1.39,0.81 1.81,1.45 0.42,0.64 0.65,1.37 0.68,2.18l-1.76 0.14c-0.09,-0.88 -0.41,-1.53 -0.95,-1.98 -0.55,-0.45 -1.35,-0.67 -2.42,-0.67 -1.1,0 -1.91,0.2 -2.42,0.61 -0.5,0.41 -0.75,0.89 -0.75,1.47 0,0.49 0.18,0.9 0.53,1.22 0.36,0.32 1.27,0.65 2.76,0.99 1.49,0.34 2.51,0.63 3.06,0.88 0.8,0.37 1.4,0.84 1.78,1.41 0.38,0.56 0.57,1.22 0.57,1.96 0,0.73 -0.21,1.42 -0.63,2.07 -0.42,0.65 -1.02,1.16 -1.81,1.52 -0.79,0.36 -1.67,0.54 -2.66,0.54 -1.25,0 -2.29,-0.19 -3.14,-0.55 -0.84,-0.36 -1.5,-0.91 -1.98,-1.64 -0.49,-0.73 -0.74,-1.56 -0.76,-2.49zm16.99 4.45l0 -12.21 -4.56 0 0 -1.62 10.95 0 0 1.62 -4.56 0 0 12.21 -1.83 0zm8.32 0l0 -13.83 6.12 0c1.24,0 2.17,0.13 2.81,0.37 0.64,0.25 1.15,0.69 1.54,1.32 0.38,0.63 0.57,1.32 0.57,2.08 0,0.98 -0.32,1.81 -0.95,2.48 -0.64,0.67 -1.62,1.1 -2.94,1.28 0.49,0.23 0.85,0.46 1.1,0.69 0.54,0.49 1.04,1.1 1.52,1.84l2.39 3.77 -2.29 0 -1.83 -2.88c-0.53,-0.83 -0.97,-1.47 -1.31,-1.91 -0.35,-0.44 -0.66,-0.75 -0.93,-0.92 -0.27,-0.18 -0.55,-0.3 -0.84,-0.37 -0.2,-0.04 -0.54,-0.06 -1.01,-0.06l-2.12 0 0 6.14 -1.83 0zm1.83 -7.73l3.93 0c0.83,0 1.48,-0.08 1.95,-0.26 0.47,-0.17 0.83,-0.45 1.07,-0.83 0.25,-0.38 0.37,-0.79 0.37,-1.24 0,-0.65 -0.24,-1.19 -0.71,-1.61 -0.47,-0.42 -1.22,-0.63 -2.24,-0.63l-4.37 0 0 4.57zm12.38 7.73l0 -13.83 1.83 0 0 13.83 -1.83 0zm4.98 0l0 -13.83 5.18 0c1.06,0 1.91,0.14 2.55,0.42 0.63,0.28 1.13,0.71 1.49,1.29 0.37,0.58 0.55,1.19 0.55,1.83 0,0.59 -0.16,1.14 -0.48,1.66 -0.32,0.53 -0.8,0.95 -1.45,1.27 0.84,0.24 1.48,0.66 1.93,1.25 0.45,0.59 0.67,1.29 0.67,2.1 0,0.65 -0.14,1.25 -0.41,1.8 -0.27,0.56 -0.61,0.99 -1.01,1.29 -0.4,0.3 -0.91,0.53 -1.52,0.68 -0.6,0.16 -1.35,0.24 -2.23,0.24l-5.27 0zm1.83 -8.02l2.99 0c0.81,0 1.39,-0.05 1.75,-0.16 0.46,-0.14 0.81,-0.37 1.05,-0.69 0.23,-0.32 0.35,-0.72 0.35,-1.21 0,-0.46 -0.11,-0.87 -0.33,-1.21 -0.22,-0.35 -0.53,-0.59 -0.94,-0.72 -0.41,-0.13 -1.11,-0.2 -2.1,-0.2l-2.77 0 0 4.19zm0 6.39l3.44 0c0.6,0 1.01,-0.02 1.25,-0.06 0.42,-0.08 0.78,-0.2 1.06,-0.38 0.28,-0.18 0.51,-0.43 0.7,-0.77 0.18,-0.34 0.27,-0.73 0.27,-1.17 0,-0.52 -0.13,-0.97 -0.4,-1.35 -0.26,-0.38 -0.63,-0.65 -1.1,-0.8 -0.47,-0.16 -1.14,-0.24 -2.02,-0.24l-3.2 0 0 4.77zm20.18 -12.2l1.83 0 0 7.99c0,1.39 -0.16,2.49 -0.47,3.31 -0.31,0.81 -0.88,1.48 -1.7,1.99 -0.82,0.51 -1.89,0.77 -3.22,0.77 -1.29,0 -2.35,-0.22 -3.17,-0.67 -0.82,-0.45 -1.41,-1.09 -1.76,-1.94 -0.35,-0.85 -0.53,-2 -0.53,-3.46l0 -7.99 1.84 0 0 7.98c0,1.2 0.11,2.09 0.33,2.66 0.22,0.57 0.6,1.01 1.15,1.31 0.54,0.31 1.2,0.47 1.98,0.47 1.34,0 2.3,-0.31 2.87,-0.92 0.56,-0.61 0.85,-1.78 0.85,-3.52l0 -7.98zm5.19 13.83l0 -13.83 1.84 0 0 13.83 -1.84 0zm5.06 0l0 -13.83 4.76 0c1.08,0 1.9,0.07 2.46,0.2 0.8,0.18 1.47,0.51 2.03,0.99 0.73,0.62 1.28,1.4 1.64,2.36 0.36,0.96 0.54,2.06 0.54,3.29 0,1.05 -0.12,1.98 -0.37,2.79 -0.24,0.81 -0.56,1.48 -0.94,2.01 -0.39,0.53 -0.8,0.95 -1.26,1.26 -0.45,0.3 -1,0.53 -1.65,0.69 -0.65,0.16 -1.39,0.24 -2.22,0.24l-4.99 0zm1.83 -1.63l2.95 0c0.91,0 1.63,-0.08 2.15,-0.25 0.51,-0.17 0.93,-0.41 1.23,-0.72 0.44,-0.43 0.77,-1.02 1.01,-1.75 0.25,-0.74 0.37,-1.62 0.37,-2.67 0,-1.45 -0.24,-2.56 -0.71,-3.34 -0.48,-0.78 -1.05,-1.3 -1.73,-1.56 -0.49,-0.19 -1.28,-0.29 -2.37,-0.29l-2.9 0 0 10.58zm11.55 -5.1c0,-2.29 0.62,-4.09 1.85,-5.39 1.24,-1.29 2.83,-1.94 4.78,-1.94 1.27,0 2.42,0.31 3.45,0.91 1.02,0.61 1.8,1.46 2.34,2.55 0.54,1.09 0.81,2.33 0.81,3.71 0,1.4 -0.28,2.65 -0.85,3.75 -0.57,1.11 -1.37,1.95 -2.4,2.51 -1.04,0.57 -2.16,0.86 -3.36,0.86 -1.31,0 -2.47,-0.32 -3.49,-0.95 -1.03,-0.62 -1.81,-1.48 -2.33,-2.57 -0.53,-1.08 -0.8,-2.23 -0.8,-3.44zm1.9 0.03c0,1.66 0.44,2.97 1.34,3.93 0.89,0.95 2.02,1.43 3.37,1.43 1.37,0 2.5,-0.48 3.39,-1.44 0.89,-0.97 1.34,-2.34 1.34,-4.12 0,-1.12 -0.19,-2.1 -0.57,-2.94 -0.38,-0.84 -0.94,-1.48 -1.67,-1.95 -0.73,-0.45 -1.55,-0.69 -2.46,-0.69 -1.3,0 -2.41,0.45 -3.34,1.34 -0.94,0.88 -1.4,2.36 -1.4,4.44zm13.72 6.7l0 -13.83 6.13 0c1.23,0 2.17,0.13 2.81,0.37 0.64,0.25 1.15,0.69 1.53,1.32 0.38,0.63 0.57,1.32 0.57,2.08 0,0.98 -0.31,1.81 -0.95,2.48 -0.63,0.67 -1.61,1.1 -2.94,1.28 0.49,0.23 0.86,0.46 1.11,0.69 0.53,0.49 1.04,1.1 1.51,1.84l2.39 3.77 -2.28 0 -1.83 -2.88c-0.53,-0.83 -0.97,-1.47 -1.32,-1.91 -0.35,-0.44 -0.65,-0.75 -0.93,-0.92 -0.27,-0.18 -0.55,-0.3 -0.83,-0.37 -0.21,-0.04 -0.55,-0.06 -1.02,-0.06l-2.12 0 0 6.14 -1.83 0zm1.83 -7.73l3.93 0c0.84,0 1.49,-0.08 1.96,-0.26 0.47,-0.17 0.82,-0.45 1.06,-0.83 0.25,-0.38 0.37,-0.79 0.37,-1.24 0,-0.65 -0.23,-1.19 -0.71,-1.61 -0.47,-0.42 -1.22,-0.63 -2.24,-0.63l-4.37 0 0 4.57zm10.56 7.73l5.3 -13.83 2.01 0 5.63 13.83 -2.08 0 -1.6 -4.19 -5.82 0 -1.5 4.19 -1.94 0zm3.98 -5.68l4.71 0 -1.44 -3.83c-0.44,-1.17 -0.77,-2.13 -1,-2.89 -0.19,0.9 -0.44,1.79 -0.76,2.66l-1.51 4.06zm-151.31 -16.76l170.74 0 0 3.46 -170.74 0 0 -3.46zm22.53 -14.29l7.01 1.1c-1.08,2.03 -2.87,3.54 -5.37,4.52 -2.51,0.99 -5.68,1.48 -9.52,1.48 -4.77,0 -8.68,-0.84 -11.75,-2.51 -3.06,-1.67 -4.6,-3.96 -4.6,-6.86 0,-3.07 1.55,-5.46 4.63,-7.16 3.07,-1.7 7.13,-2.54 12.15,-2.54 4.39,0 7.95,0.66 10.69,2 1.63,0.79 2.85,1.92 3.67,3.4l-7.16 0.88c-0.43,-0.96 -1.31,-1.71 -2.65,-2.26 -1.36,-0.56 -2.99,-0.83 -4.91,-0.83 -2.66,0 -4.82,0.49 -6.47,1.47 -1.66,0.98 -2.49,2.56 -2.49,4.76 0,2.33 0.82,3.99 2.45,4.97 1.63,0.99 3.75,1.49 6.36,1.49 1.93,0 3.59,-0.32 4.97,-0.95 1.39,-0.63 2.39,-1.61 2.99,-2.96zm13.22 6.79l0 -18.43 26.53 0 0 3.11 -19.27 0 0 4.1 17.92 0 0 3.11 -17.92 0 0 5 19.97 0 0 3.11 -27.23 0zm33.14 0l0 -18.43 7.26 0 0 18.43 -7.26 0zm44.73 0l0 -18.43 26.53 0 0 3.11 -19.27 0 0 4.1 17.92 0 0 3.11 -17.92 0 0 5 19.97 0 0 3.11 -27.23 0zm33.59 0l0 -18.28 7.26 0 0 15.17 17.97 0 0 3.11 -25.23 0zm-81.46 -50.54c0.26,-0.43 0.56,-0.81 0.9,-1.14 1.45,-1.38 3.56,-1.84 6.1,-1.47 2.48,0.37 5.38,1.53 8.46,3.4 3.47,2.1 7.17,5.1 10.77,8.87 5.37,5.62 9.52,11.89 11.88,17.49 0.73,1.73 1.29,3.39 1.66,4.96l3.41 0 0 3.11 -2.9 0c0.16,2.23 -0.16,4.14 -1.04,5.58 -0.26,0.43 -0.56,0.81 -0.9,1.14 -1.38,1.31 -3.35,1.79 -5.73,1.51l0 7.09 -7.25 0 0 -9.63c-0.52,-0.28 -1.05,-0.58 -1.58,-0.9 -2.1,-1.28 -4.29,-2.88 -6.49,-4.79l-2.55 0 0 -2.33c-0.58,-0.57 -1.16,-1.15 -1.73,-1.75 -5.37,-5.62 -9.52,-11.89 -11.88,-17.49 -2.39,-5.65 -2.95,-10.65 -1.13,-13.65zm1.35 -0.67c-0.3,0.29 -0.57,0.63 -0.8,1.01 -1.7,2.8 -1.13,7.59 1.18,13.06 2.33,5.53 6.43,11.73 11.75,17.29 0.46,0.48 0.93,0.96 1.4,1.42l24.23 0c-0.37,-1.49 -0.91,-3.07 -1.6,-4.71 -2.33,-5.53 -6.43,-11.73 -11.75,-17.29 -3.56,-3.73 -7.22,-6.69 -10.64,-8.76 -3,-1.83 -5.82,-2.96 -8.22,-3.31 -2.33,-0.34 -4.26,0.06 -5.55,1.29zm16.94 35.89c1.98,1.67 3.94,3.09 5.83,4.23 0.41,0.25 0.83,0.49 1.24,0.72l0 -4.95 -7.07 0zm14.32 7.58c2.22,0.27 4.04,-0.15 5.28,-1.33 0.3,-0.29 0.57,-0.63 0.8,-1.01 0.81,-1.34 1.11,-3.13 0.94,-5.24l-7.02 0 0 7.58zm9.27 -42.57c0.98,0.06 1.73,0.9 1.67,1.87 -0.06,0.98 -0.9,1.73 -1.87,1.67 -0.98,-0.06 -1.73,-0.9 -1.67,-1.87 0.06,-0.98 0.9,-1.73 1.87,-1.67zm-5.15 4.46c0.98,0.06 1.73,0.9 1.67,1.88 -0.06,0.98 -0.9,1.72 -1.88,1.67 -0.97,-0.06 -1.72,-0.9 -1.66,-1.88 0.06,-0.98 0.9,-1.72 1.87,-1.67zm-5.15 4.47c0.98,0.05 1.73,0.89 1.67,1.87 -0.06,0.98 -0.9,1.73 -1.88,1.67 -0.97,-0.06 -1.72,-0.9 -1.66,-1.88 0.05,-0.97 0.89,-1.72 1.87,-1.66zm-5.15 4.46c0.98,0.06 1.73,0.9 1.67,1.88 -0.06,0.97 -0.9,1.72 -1.88,1.66 -0.97,-0.05 -1.72,-0.89 -1.66,-1.87 0.05,-0.98 0.89,-1.73 1.87,-1.67zm-5.15 4.46c0.98,0.06 1.73,0.9 1.67,1.88 -0.06,0.98 -0.9,1.72 -1.88,1.67 -0.97,-0.06 -1.72,-0.9 -1.66,-1.88 0.05,-0.98 0.89,-1.72 1.87,-1.67zm-5.15 4.47c0.98,0.06 1.73,0.9 1.67,1.87 -0.06,0.98 -0.9,1.73 -1.88,1.67 -0.98,-0.06 -1.72,-0.9 -1.66,-1.87 0.05,-0.98 0.89,-1.73 1.87,-1.67z"/>
 </g>
</svg>
